<?xml version="1.0" encoding="utf-8"?>
<!-- Generator: Adobe Illustrator 25.2.0, SVG Export Plug-In . SVG Version: 6.00 Build 0)  -->
<svg version="1.1" id="Layer_1" xmlns="http://www.w3.org/2000/svg" xmlns:xlink="http://www.w3.org/1999/xlink" x="0px" y="0px"
	 viewBox="0 0 595.3 841.9" style="enable-background:new 0 0 595.3 841.9;" xml:space="preserve">
<style type="text/css">
	.st0{fill-rule:evenodd;clip-rule:evenodd;}
</style>
<path class="st0" d="M302.3,420.4c-0.3-2.1-2-3.8-4.1-4.1c-3.3-0.5-6.2,2.3-5.7,5.7c0.3,2.1,2,3.8,4.1,4.1
	C300,426.6,302.8,423.7,302.3,420.4z M300.5,422.9h-3.7c-0.2,0.4-0.5,0.6-0.9,0.6c-0.4,0-0.8-0.3-0.9-0.6h-0.6
	c-0.2,0-0.4-0.2-0.4-0.4c0-0.2,0.2-0.4,0.4-0.4h0.6c0.2-0.4,0.5-0.6,0.9-0.6c0.4,0,0.8,0.3,0.9,0.6h3.7c0.2,0,0.4,0.2,0.4,0.4
	C300.9,422.7,300.7,422.9,300.5,422.9z M300.5,420.3h-0.7c-0.2,0.4-0.5,0.6-0.9,0.6s-0.8-0.3-0.9-0.6h-3.6c-0.2,0-0.4-0.2-0.4-0.4
	c0-0.2,0.2-0.4,0.4-0.4h3.6c0.2-0.4,0.5-0.6,0.9-0.6c0.4,0,0.8,0.3,0.9,0.6h0.7c0.2,0,0.4,0.2,0.4,0.4
	C300.9,420.1,300.7,420.3,300.5,420.3z"/>
</svg>
