<?xml version="1.0" encoding="utf-8"?>
<!-- Generator: Adobe Illustrator 25.2.0, SVG Export Plug-In . SVG Version: 6.00 Build 0)  -->
<svg version="1.1" id="Layer_1" xmlns="http://www.w3.org/2000/svg" xmlns:xlink="http://www.w3.org/1999/xlink" x="0px" y="0px"
	 viewBox="0 0 595.3 841.9" style="enable-background:new 0 0 595.3 841.9;" xml:space="preserve">
<style type="text/css">
	.st0{fill:#FFFFFF;}
</style>
<circle cx="297.1" cy="421" r="5"/>
<path class="st0" d="M296.9,419.1h-0.7v-0.7c0-0.3-0.2-0.5-0.5-0.5s-0.5,0.2-0.5,0.5v0.7h-0.7c-0.3,0-0.5,0.2-0.5,0.5
	s0.2,0.5,0.5,0.5h0.7v0.7c0,0.3,0.2,0.5,0.5,0.5s0.5-0.2,0.5-0.5v-0.7h0.7c0.3,0,0.5-0.2,0.5-0.5S297.2,419.1,296.9,419.1z"/>
<path class="st0" d="M299.5,419c-0.2-0.2-0.5-0.2-0.8,0l-3.5,3.5c-0.2,0.2-0.2,0.5,0,0.8c0.1,0.1,0.2,0.2,0.4,0.2s0.3-0.1,0.4-0.2
	l3.5-3.5C299.8,419.6,299.8,419.3,299.5,419z"/>
<path class="st0" d="M300,422.3h-1.9c-0.3,0-0.5,0.2-0.5,0.5s0.2,0.5,0.5,0.5h1.9c0.3,0,0.5-0.2,0.5-0.5S300.3,422.3,300,422.3z"/>
</svg>
