<?xml version="1.0" encoding="utf-8"?>
<!-- Generator: Adobe Illustrator 25.2.0, SVG Export Plug-In . SVG Version: 6.00 Build 0)  -->
<svg version="1.1" id="Layer_1" xmlns="http://www.w3.org/2000/svg" xmlns:xlink="http://www.w3.org/1999/xlink" x="0px" y="0px"
	 viewBox="0 0 595.3 841.9" style="enable-background:new 0 0 595.3 841.9;" xml:space="preserve">
<style type="text/css">
	.st0{fill:#010101;stroke:#010101;stroke-width:0.5;stroke-linecap:round;stroke-linejoin:round;stroke-miterlimit:10;}
</style>
<g>
	<g>
		<path class="st0" d="M300.6,426c0,0-0.1,0-0.1,0c-0.1,0-0.2-0.1-0.2-0.4l0-1.5l-4.7,0c0,0,0,0,0,0l0-2.5c0-0.2,0.1-0.4,0.2-0.5
			s0.3-0.2,0.5-0.2l4,0l0-1.6c0-0.3,0.1-0.4,0.2-0.4c0,0,0.1,0,0.1,0c0.1,0,0.2,0.1,0.3,0.2l3.4,3.4l-3.4,3.4
			C300.8,426,300.7,426,300.6,426z M299.9,423.7c0.4,0,0.7,0.3,0.7,0.7l0,1.3l3.3-3.3l-3.3-3.3l0,2.1c0,0,0,0,0,0l-4.3,0
			c-0.1,0-0.2,0-0.3,0.1c-0.1,0.1-0.1,0.2-0.1,0.3l0,2.2L299.9,423.7L299.9,423.7z"/>
	</g>
	<g>
		<path class="st0" d="M294.1,423.9c-0.2,0-0.3-0.1-0.5-0.2l-2.9-2.9c-0.2-0.2-0.3-0.4-0.3-0.6c0-0.2,0.1-0.4,0.3-0.6l2.9-2.9
			c0.1-0.1,0.3-0.2,0.5-0.2c0.1,0,0.1,0,0.2,0c0.1,0,0.3,0.2,0.3,0.6v1.2c0,0.1,0,0.1,0.1,0.1c0,0,0.1,0.1,0.1,0.1l3.7,0
			c0.2,0,0.4,0.1,0.6,0.3c0.1,0.1,0.2,0.3,0.3,0.5H299c0-0.1-0.1-0.2-0.2-0.3c-0.1-0.1-0.2-0.2-0.4-0.2c0,0,0,0,0,0l-3.7,0l0,0
			c-0.1,0-0.2-0.1-0.3-0.1c-0.1-0.1-0.1-0.2-0.1-0.3V417c0-0.2,0-0.3-0.1-0.3c0,0,0,0-0.1,0c-0.1,0-0.2,0-0.2,0.1l-2.9,2.9
			c-0.1,0.1-0.2,0.2-0.2,0.4c0,0.2,0.1,0.3,0.2,0.4l2.9,2.9c0.1,0.1,0.2,0.1,0.2,0.1c0,0,0,0,0.1,0c0.1,0,0.1-0.1,0.1-0.3l0-1.2
			l0.3,0l0,1.2c0,0.4-0.2,0.5-0.3,0.6C294.3,423.9,294.2,423.9,294.1,423.9z"/>
	</g>
</g>
</svg>
