<?xml version="1.0" encoding="utf-8"?>
<!-- Generator: Adobe Illustrator 19.0.0, SVG Export Plug-In . SVG Version: 6.00 Build 0)  -->
<svg version="1.1" id="Layer_1" xmlns="http://www.w3.org/2000/svg" xmlns:xlink="http://www.w3.org/1999/xlink" x="0px" y="0px"
	 width="1400px" height="980px" viewBox="0 0 1400 980" enable-background="new 0 0 1400 980" xml:space="preserve">
<g id="XMLID_801_">
	<g id="XMLID_193_">
		<g id="XMLID_5_">
			<g id="XMLID_4_">
				<path id="XMLID_841_" d="M153.1,154.2c-3.8,3.8-10.2,3.2-13.2-1.3c-11.8-17.5-11.3-39.9,2.3-53.6s36-14.1,53.6-2.3
					c4.5,3,5.1,9.4,1.3,13.2L153.1,154.2z"/>
			</g>
			<g id="XMLID_6_">
				<path id="XMLID_840_" d="M281.7,110.3c-3.8-3.8-3.2-10.2,1.3-13.2c17.5-11.8,39.9-11.3,53.6,2.3s14.1,36,2.3,53.6
					c-3,4.5-9.4,5.1-13.2,1.3L281.7,110.3z"/>
			</g>
		</g>
		<g id="XMLID_645_">
			<path id="XMLID_7_" d="M239.4,111.8c-46.5,0-84.2,37.7-84.2,84.2s37.7,84.2,84.2,84.2s84.2-37.7,84.2-84.2
				S285.9,111.8,239.4,111.8z M239.4,264.1c-37.6,0-68.1-30.5-68.1-68.1s30.5-68.1,68.1-68.1s68.1,30.5,68.1,68.1
				S277,264.1,239.4,264.1z"/>
		</g>
		<g id="XMLID_3_">
			<circle id="XMLID_839_" cx="239.4" cy="196.1" r="10.6"/>
		</g>
		<g id="XMLID_8_">
			<rect id="XMLID_838_" x="231.2" y="101.5" width="16.3" height="21"/>
		</g>
		<g id="XMLID_9_">
			<path id="XMLID_837_" d="M246.7,102.3h-14.6c-2.2,0-4-1.8-4-4v0c0-2.2,1.8-4,4-4h14.6c2.2,0,4,1.8,4,4v0
				C250.6,100.5,248.9,102.3,246.7,102.3z"/>
		</g>
		<g id="XMLID_10_">
			<g id="XMLID_11_">
				<path id="XMLID_836_" d="M192.8,294.2H178c-3.2,0-5.4-3.2-4.3-6.2l10.1-26.5c0.7-1.8,2.4-2.9,4.3-2.9H203c3.2,0,5.4,3.2,4.3,6.2
					l-10.1,26.5C196.4,293.1,194.7,294.2,192.8,294.2z"/>
			</g>
			<g id="XMLID_12_">
				<path id="XMLID_835_" d="M285.9,294.2h14.9c3.2,0,5.4-3.2,4.3-6.2l-10.1-26.5c-0.7-1.8-2.4-2.9-4.3-2.9h-14.9
					c-3.2,0-5.4,3.2-4.3,6.2l10.1,26.5C282.3,293.1,284,294.2,285.9,294.2z"/>
			</g>
		</g>
		<g id="XMLID_13_">
			<path id="XMLID_716_" d="M271.7,201.1h-37.4v-49.3c0-2.8,2.2-5,5-5c2.8,0,5,2.2,5,5v39.3h27.4c2.8,0,5,2.2,5,5
				S274.5,201.1,271.7,201.1z"/>
		</g>
	</g>
	<g id="XMLID_213_">
		<g id="XMLID_646_">
			<path id="XMLID_15_" d="M547,98.3c-54.1,0-98,43.9-98,98c0,54.1,43.9,98,98,98c54.1,0,98-43.9,98-98
				C645,142.2,601.1,98.3,547,98.3z M547,275.4c-43.7,0-79.2-35.4-79.2-79.2s35.4-79.2,79.2-79.2c43.7,0,79.2,35.4,79.2,79.2
				S590.8,275.4,547,275.4z"/>
		</g>
		<g id="XMLID_14_">
			<circle id="XMLID_834_" cx="547.3" cy="196.3" r="12.3"/>
		</g>
		<g id="XMLID_17_">
			<path id="XMLID_715_" d="M547.7,202.5l-38.5-25.4c-2.3-1.5-2.9-4.6-1.4-6.9c1.5-2.3,4.6-2.9,6.9-1.4l32.2,21.2l42.9-37.5
				c2.1-1.8,5.2-1.6,7.1,0.5c1.8,2.1,1.6,5.2-0.5,7.1L547.7,202.5z"/>
		</g>
		<g id="XMLID_37_">
			<g id="XMLID_19_">
				<g id="XMLID_20_">
					<rect id="XMLID_714_" x="597.5" y="194.8" width="35.8" height="3"/>
				</g>
				<g id="XMLID_21_">
					<rect id="XMLID_713_" x="460.7" y="194.8" width="35.8" height="3"/>
				</g>
			</g>
			<g id="XMLID_22_">
				<g id="XMLID_23_">
					<rect id="XMLID_712_" x="545.5" y="110" width="3" height="35.8"/>
				</g>
				<g id="XMLID_24_">
					<rect id="XMLID_711_" x="545.5" y="246.8" width="3" height="35.8"/>
				</g>
			</g>
		</g>
	</g>
	<g id="XMLID_215_">
		<g id="XMLID_647_">
			<path id="XMLID_25_" d="M850.7,108.7c-51.2,0-92.8,41.5-92.8,92.8s41.5,92.8,92.8,92.8c51.2,0,92.8-41.5,92.8-92.8
				S901.9,108.7,850.7,108.7z M850.7,276.4c-41.4,0-75-33.6-75-75s33.6-75,75-75s75,33.6,75,75S892.1,276.4,850.7,276.4z"/>
		</g>
		<g id="XMLID_189_">
			<circle id="XMLID_833_" cx="850.7" cy="201.5" r="11.7"/>
		</g>
		<g id="XMLID_88_">
			<rect id="XMLID_832_" x="841.7" y="97.4" width="18" height="23.2"/>
		</g>
		<g id="XMLID_87_">
			<path id="XMLID_831_" d="M868.7,101.5h-36.1c-3.3,0-6-2.7-6-6l0,0c0-3.3,2.7-6,6-6h36.1c3.3,0,6,2.7,6,6l0,0
				C874.8,98.8,872.1,101.5,868.7,101.5z"/>
		</g>
		<g id="XMLID_86_">
			<path id="XMLID_710_" d="M886.3,204h-38.1v-51.2c0-1.4,1.1-2.5,2.5-2.5c1.4,0,2.5,1.1,2.5,2.5V199h33.1c1.4,0,2.5,1.1,2.5,2.5
				C888.8,202.9,887.7,204,886.3,204z"/>
		</g>
		<g id="XMLID_194_">
			<g id="XMLID_201_">
				<g id="XMLID_203_">
					<rect id="XMLID_709_" x="901.2" y="199.1" width="35.8" height="3"/>
				</g>
				<g id="XMLID_202_">
					<rect id="XMLID_708_" x="764.4" y="199.1" width="35.8" height="3"/>
				</g>
			</g>
			<g id="XMLID_195_">
				<g id="XMLID_200_">
					<rect id="XMLID_707_" x="849.2" y="114.3" width="3" height="35.8"/>
				</g>
				<g id="XMLID_196_">
					<rect id="XMLID_706_" x="849.2" y="251.1" width="3" height="35.8"/>
				</g>
			</g>
		</g>
		<g id="XMLID_192_">
			<g id="XMLID_207_">
				<g id="XMLID_209_">
					
						<rect id="XMLID_705_" x="881.2" y="247.5" transform="matrix(0.7071 0.7071 -0.7071 0.7071 439.3628 -562.8069)" width="35.8" height="3"/>
				</g>
				<g id="XMLID_208_">
					
						<rect id="XMLID_704_" x="784.4" y="150.7" transform="matrix(0.7071 0.7071 -0.7071 0.7071 342.636 -522.7406)" width="35.8" height="3"/>
				</g>
			</g>
			<g id="XMLID_204_">
				<g id="XMLID_206_">
					
						<rect id="XMLID_703_" x="897.6" y="134.3" transform="matrix(0.7071 0.7071 -0.7071 0.7071 370.9732 -591.1412)" width="3" height="35.8"/>
				</g>
				<g id="XMLID_205_">
					
						<rect id="XMLID_702_" x="800.8" y="231.1" transform="matrix(0.7071 0.7071 -0.7071 0.7071 411.0386 -494.4146)" width="3" height="35.8"/>
				</g>
			</g>
		</g>
	</g>
	<g id="XMLID_224_">
		<g id="XMLID_55_">
			<g id="XMLID_57_">
				<path id="XMLID_830_" d="M1122.9,889.6l-14.9-0.2c-3.2-0.1-5.4-3.3-4.2-6.3l10.6-26.3c0.7-1.8,2.4-2.9,4.3-2.9l14.9,0.2
					c3.2,0.1,5.4,3.3,4.2,6.3l-10.6,26.3C1126.6,888.5,1124.8,889.6,1122.9,889.6z"/>
			</g>
			<g id="XMLID_56_">
				<path id="XMLID_829_" d="M1216,891.1l14.9,0.2c3.2,0.1,5.5-3.1,4.4-6.1l-9.7-26.7c-0.6-1.8-2.3-3-4.2-3l-14.9-0.2
					c-3.2-0.1-5.5,3.1-4.4,6.1l9.7,26.7C1212.4,889.9,1214.1,891.1,1216,891.1z"/>
			</g>
		</g>
		<g id="XMLID_653_">
			<path id="XMLID_27_" d="M1220.2,704.2l-95.4-1.5c-20.3-0.3-37,15.8-37.3,36.1l-1.5,95.4c-0.3,20.3,15.8,37,36.1,37.3l95.4,1.5
				c20.3,0.3,37-15.8,37.3-36.1l1.5-95.4C1256.6,721.2,1240.5,704.5,1220.2,704.2z M1235.9,834.9c0,9.9-8,17.8-17.8,17.8h-94.1
				c-9.9,0-17.8-8-17.8-17.8v-94.1c0-9.9,8-17.8,17.8-17.8h94.1c9.9,0,17.8,8,17.8,17.8V834.9z"/>
		</g>
		<g id="XMLID_28_">
			<circle id="XMLID_828_" cx="1171.1" cy="787.9" r="10.4"/>
		</g>
		<g id="XMLID_49_">
			<path id="XMLID_701_" d="M1204.8,793.4C1204.8,793.4,1204.8,793.4,1204.8,793.4l-38.8-0.6l0.8-51.1c0-2.8,2.3-5,5.1-4.9
				c2.8,0,5,2.3,4.9,5.1l-0.7,41.1l28.7,0.5c2.8,0,5,2.3,4.9,5.1C1209.8,791.2,1207.6,793.4,1204.8,793.4z"/>
		</g>
	</g>
	<g id="XMLID_216_">
		<g id="XMLID_648_">
			<path id="XMLID_29_" d="M1231.8,99.5h-121.4c-20.3,0-36.7,16.4-36.7,36.7v121.4c0,20.3,16.4,36.7,36.7,36.7h121.4
				c20.3,0,36.7-16.4,36.7-36.7V136.2C1268.5,115.9,1252.1,99.5,1231.8,99.5z M1246,253.9c0,9.9-8,17.8-17.8,17.8h-114
				c-9.9,0-17.8-8-17.8-17.8v-114c0-9.9,8-17.8,17.8-17.8h114c9.9,0,17.8,8,17.8,17.8V253.9z"/>
		</g>
		<g id="XMLID_52_">
			<circle id="XMLID_827_" cx="1171.1" cy="196.9" r="12"/>
		</g>
		<g id="XMLID_46_">
			<path id="XMLID_700_" d="M1172.2,203.1l-38.5-25.4c-2.3-1.5-2.9-4.6-1.4-6.9c1.5-2.3,4.6-2.9,6.9-1.4l32.2,21.2l42.9-37.5
				c2.1-1.8,5.2-1.6,7.1,0.5c1.8,2.1,1.6,5.2-0.5,7.1L1172.2,203.1z"/>
		</g>
		<g id="XMLID_18_">
			<g id="XMLID_60_">
				<g id="XMLID_62_">
					<rect id="XMLID_699_" x="1219.3" y="194.4" width="34.1" height="5"/>
				</g>
				<g id="XMLID_61_">
					<rect id="XMLID_698_" x="1088.9" y="194.4" width="34.1" height="5"/>
				</g>
			</g>
			<g id="XMLID_51_">
				<g id="XMLID_59_">
					<rect id="XMLID_697_" x="1168.6" y="114.6" width="5" height="34.1"/>
				</g>
				<g id="XMLID_58_">
					<rect id="XMLID_696_" x="1168.6" y="245" width="5" height="34.1"/>
				</g>
			</g>
		</g>
	</g>
	<g id="XMLID_217_">
		<g id="XMLID_135_">
			<g id="XMLID_161_">
				<path id="XMLID_33_" d="M330.9,461.5L243,391c-2.1-1.7-5.2-1.7-7.3,0l-87.8,70.5c-4.3,3.5-1.9,10.4,3.7,10.4h20.2v79
					c0,3.2,2.6,5.9,5.9,5.9h123.5c3.2,0,5.9-2.6,5.9-5.9v-79h20.2C332.7,472,335.2,465,330.9,461.5z M239.4,531
					c-20.6,0-37.3-16.7-37.3-37.3c0-20.6,16.7-37.3,37.3-37.3s37.3,16.7,37.3,37.3C276.7,514.3,260,531,239.4,531z"/>
			</g>
			<g id="XMLID_137_">
				<circle id="XMLID_826_" cx="239.4" cy="493.7" r="5.8"/>
			</g>
			<g id="XMLID_136_">
				<path id="XMLID_695_" d="M257.1,496.2h-20.2v-26.8c0-1.4,1.1-2.5,2.5-2.5c1.4,0,2.5,1.1,2.5,2.5v21.8h15.2
					c1.4,0,2.5,1.1,2.5,2.5C259.6,495,258.5,496.2,257.1,496.2z"/>
			</g>
		</g>
		<g id="XMLID_144_">
			<g id="XMLID_142_">
				<g id="XMLID_140_">
					<ellipse id="XMLID_825_" cx="227.5" cy="588.4" rx="7.1" ry="16.9"/>
				</g>
				<g id="XMLID_141_">
					<circle id="XMLID_824_" cx="227.5" cy="568.5" r="3"/>
				</g>
				<g id="XMLID_143_">
					<rect id="XMLID_694_" x="226.5" y="541.6" width="2" height="46.8"/>
				</g>
			</g>
			<g id="XMLID_145_">
				<g id="XMLID_148_">
					<ellipse id="XMLID_823_" cx="251.2" cy="599.6" rx="7.1" ry="16.9"/>
				</g>
				<g id="XMLID_147_">
					<circle id="XMLID_822_" cx="251.2" cy="579.7" r="3"/>
				</g>
				<g id="XMLID_146_">
					<rect id="XMLID_693_" x="250.2" y="552.9" width="2" height="46.8"/>
				</g>
			</g>
		</g>
	</g>
	<g id="XMLID_221_">
		<g id="XMLID_150_">
			<polygon id="XMLID_821_" points="566.2,495.2 566.2,599.6 527.9,599.6 527.9,495.2 512.7,495.2 512.7,616.5 580.8,616.5 
				580.8,495.2 			"/>
		</g>
		<g id="XMLID_169_">
			<path id="XMLID_32_" d="M591.6,384.2h-89.1c-7.2,0-13.1,5.9-13.1,13.1v89.1c0,7.2,5.9,13.1,13.1,13.1h89.1
				c7.2,0,13.1-5.9,13.1-13.1v-89.1C604.7,390,598.8,384.2,591.6,384.2z M547,488.4c-25.7,0-46.6-20.9-46.6-46.6
				c0-25.7,20.9-46.6,46.6-46.6c25.7,0,46.6,20.9,46.6,46.6C593.6,467.5,572.8,488.4,547,488.4z"/>
		</g>
		<g id="XMLID_149_">
			<circle id="XMLID_820_" cx="547" cy="441.8" r="3.9"/>
		</g>
		<g id="XMLID_152_">
			<path id="XMLID_692_" d="M547,444.9l-17.5-11.6c-1.2-0.8-1.5-2.3-0.7-3.5c0.8-1.2,2.3-1.5,3.5-0.7l14.4,9.5l19.2-16.8
				c1-0.9,2.6-0.8,3.5,0.2c0.9,1,0.8,2.6-0.2,3.5L547,444.9z"/>
		</g>
		<g id="XMLID_153_">
			<g id="XMLID_157_">
				<g id="XMLID_159_">
					<rect id="XMLID_691_" x="575.5" y="440.3" width="20.4" height="3"/>
				</g>
				<g id="XMLID_158_">
					<rect id="XMLID_690_" x="497.7" y="440.3" width="20.4" height="3"/>
				</g>
			</g>
			<g id="XMLID_154_">
				<g id="XMLID_156_">
					<rect id="XMLID_689_" x="545.3" y="392.7" width="3" height="20.4"/>
				</g>
				<g id="XMLID_155_">
					<rect id="XMLID_688_" x="545.3" y="470.5" width="3" height="20.4"/>
				</g>
			</g>
		</g>
		<g id="XMLID_162_">
			<rect id="XMLID_819_" x="500.7" y="605" width="93.2" height="11.2"/>
		</g>
		<g id="XMLID_164_">
			<path id="XMLID_818_" d="M570.9,389.8h-48.2c-3.1,0-5.6-2.5-5.6-5.6l0,0c0-3.1,2.5-5.6,5.6-5.6h48.2c3.1,0,5.6,2.5,5.6,5.6l0,0
				C576.5,387.3,574,389.8,570.9,389.8z"/>
		</g>
		<g id="XMLID_163_">
			<circle id="XMLID_817_" cx="546.8" cy="559.3" r="11.9"/>
		</g>
		<g id="XMLID_166_">
			<rect id="XMLID_687_" x="545.3" y="497.4" width="3" height="58.5"/>
		</g>
	</g>
	<g id="XMLID_222_">
		<g id="XMLID_165_">
			<path id="XMLID_816_" d="M872,509.2V583c0,11.8-9.5,21.3-21.3,21.3l0,0c-11.8,0-21.3-9.5-21.3-21.3v-73.8h-12.1v74
				c0,18.4,14.9,33.4,33.4,33.4l0,0c18.4,0,33.4-14.9,33.4-33.4v-74H872z"/>
		</g>
		<g id="XMLID_174_">
			<circle id="XMLID_815_" cx="850.7" cy="572.7" r="11.9"/>
		</g>
		<g id="XMLID_173_">
			<rect id="XMLID_686_" x="849.2" y="510.9" width="3" height="58.5"/>
		</g>
		<g id="XMLID_650_">
			<path id="XMLID_34_" d="M927.8,437.6l-29.1-50.4c-3.9-6.8-11.1-10.9-18.9-10.9h-58.2c-7.8,0-15,4.2-18.9,10.9l-29.1,50.4
				c-3.9,6.8-3.9,15.1,0,21.8l29.1,50.4c3.9,6.8,11.1,10.9,18.9,10.9h58.2c7.8,0,15-4.2,18.9-10.9l29.1-50.4
				C931.7,452.6,931.7,444.3,927.8,437.6z M850.7,493.7c-25,0-45.2-20.3-45.2-45.2s20.3-45.2,45.2-45.2s45.2,20.3,45.2,45.2
				S875.7,493.7,850.7,493.7z"/>
		</g>
		<g id="XMLID_170_">
			<circle id="XMLID_814_" cx="850.7" cy="448.5" r="3.7"/>
		</g>
		<g id="XMLID_172_">
			<path id="XMLID_685_" d="M850.4,451.6L832.8,440c-1.2-0.8-1.5-2.3-0.7-3.5c0.8-1.2,2.3-1.5,3.5-0.7l14.4,9.5l19.2-16.8
				c1-0.9,2.6-0.8,3.5,0.2c0.9,1,0.8,2.6-0.2,3.5L850.4,451.6z"/>
		</g>
	</g>
	<g id="XMLID_223_">
		<g id="XMLID_649_">
			<path id="XMLID_35_" d="M1171.1,376L1171.1,376c-36,0-65.2,29.2-65.2,65.2v110.2c0,36,29.2,65.2,65.2,65.2h0
				c36,0,65.2-29.2,65.2-65.2V441.2C1236.3,405.2,1207.1,376,1171.1,376z M1218,551.3c0,25.9-21.1,46.9-46.9,46.9
				c-25.9,0-46.9-21.1-46.9-46.9V441.2c0-25.9,21.1-46.9,46.9-46.9c25.9,0,46.9,21.1,46.9,46.9V551.3z"/>
		</g>
		<g id="XMLID_177_">
			<g id="XMLID_36_">
				<path id="XMLID_38_" d="M1171.1,487.6c-21.7,0-39.4-17.7-39.4-39.4c0-21.7,17.7-39.4,39.4-39.4s39.4,17.7,39.4,39.4
					C1210.5,469.9,1192.8,487.6,1171.1,487.6z M1171.1,415.8c-17.9,0-32.4,14.5-32.4,32.4c0,17.9,14.5,32.4,32.4,32.4
					s32.4-14.5,32.4-32.4C1203.5,430.3,1189,415.8,1171.1,415.8z"/>
			</g>
		</g>
		<g id="XMLID_178_">
			<circle id="XMLID_813_" cx="1171.1" cy="448.2" r="3.7"/>
		</g>
		<g id="XMLID_179_">
			<path id="XMLID_684_" d="M1171.3,450l-16.9-11.1c-0.7-0.5-0.9-1.4-0.4-2.1c0.5-0.7,1.4-0.9,2.1-0.4l15,9.9l19.8-17.3
				c0.6-0.5,1.6-0.5,2.1,0.1c0.5,0.6,0.5,1.6-0.1,2.1L1171.3,450z"/>
		</g>
		<g id="XMLID_181_">
			<circle id="XMLID_812_" cx="1171.1" cy="555.9" r="16.7"/>
		</g>
		<g id="XMLID_180_">
			<rect id="XMLID_683_" x="1168.6" y="483.5" width="5" height="68.9"/>
		</g>
	</g>
	<g id="XMLID_227_">
		<g id="XMLID_184_">
			<path id="XMLID_40_" d="M287.3,727.3c0,37.1-18.6,67.7-42.5,71.8c23.9,4.1,42.5,34.7,42.5,71.8h-96c0-37.1,18.6-67.7,42.5-71.8
				c-23.9-4.1-42.5-34.7-42.5-71.8H287.3 M295.3,719.3h-8h-96h-8v8c0,19.3,4.8,37.9,13.4,52.4c4.9,8.2,10.8,14.7,17.3,19.4
				c-6.6,4.7-12.5,11.3-17.3,19.4c-8.6,14.5-13.4,33.1-13.4,52.4v8h8h96h8v-8c0-19.3-4.8-37.9-13.4-52.4
				c-4.9-8.2-10.8-14.7-17.3-19.4c6.6-4.7,12.5-11.3,17.3-19.4c8.6-14.5,13.4-33.1,13.4-52.4V719.3L295.3,719.3z"/>
		</g>
		<g id="XMLID_175_">
			<rect id="XMLID_811_" x="159.9" y="706.9" width="159" height="20.4"/>
		</g>
		<g id="XMLID_81_">
			<rect id="XMLID_810_" x="159.9" y="871" width="159" height="20.4"/>
		</g>
		<g id="XMLID_31_">
			<g id="XMLID_84_">
				<rect id="XMLID_682_" x="171.7" y="717.1" width="7" height="164"/>
			</g>
			<g id="XMLID_41_">
				<rect id="XMLID_681_" x="300.1" y="717.1" width="7" height="164"/>
			</g>
		</g>
		<g id="XMLID_42_">
			<path id="XMLID_809_" d="M194.9,871l26.6-26.3c10.8-10.7,24.8-10.7,35.7,0l26.6,26.3H194.9z"/>
		</g>
		<g id="XMLID_43_">
			<path id="XMLID_808_" d="M270.5,767.8l-7.3,9.2c-13.1,16.4-34.5,16.4-47.6,0l-7.3-9.2H270.5z"/>
		</g>
	</g>
	<g id="XMLID_225_">
		<g id="XMLID_199_">
			<g id="XMLID_211_">
				<path id="XMLID_807_" d="M802.5,889.6l-14.9-0.2c-3.2-0.1-5.4-3.3-4.2-6.3l10.6-26.3c0.7-1.8,2.4-2.9,4.3-2.9l14.9,0.2
					c3.2,0.1,5.4,3.3,4.2,6.3l-10.6,26.3C806.1,888.5,804.4,889.6,802.5,889.6z"/>
			</g>
			<g id="XMLID_210_">
				<path id="XMLID_806_" d="M895.6,891.1l14.9,0.2c3.2,0.1,5.5-3.1,4.4-6.1l-9.7-26.7c-0.6-1.8-2.3-3-4.2-3l-14.9-0.2
					c-3.2-0.1-5.5,3.1-4.4,6.1l9.7,26.7C892,889.9,893.7,891.1,895.6,891.1z"/>
			</g>
		</g>
		<g id="XMLID_652_">
			<path id="XMLID_45_" d="M899.8,704.2l-95.4-1.5c-20.3-0.3-37,15.8-37.3,36.1l-1.5,95.4c-0.3,20.3,15.8,37,36.1,37.3l95.4,1.5
				c20.3,0.3,37-15.8,37.3-36.1l1.5-95.4C936.2,721.2,920,704.5,899.8,704.2z M915.4,834.9c0,9.9-8,17.8-17.8,17.8h-94.1
				c-9.9,0-17.8-8-17.8-17.8v-94.1c0-9.9,8-17.8,17.8-17.8h94.1c9.9,0,17.8,8,17.8,17.8V834.9z"/>
		</g>
		<g id="XMLID_212_">
			<path id="XMLID_668_" d="M803.7,799.7h-5.3l-1.8-1.6l1.7-1.7h5.1v-8.9l1.3-1.4l-1.3-1.3v-8.9h-5l-1.8-1.6l1.7-1.7h5.3l1.7,1.6
				l-0.1,0.1l1.3,1.4v9.2l-1.3,1.4l1.3,1.3v8.9h5l1.8,1.6l-1.7,1.7h-5.3l-1.4-1.3L803.7,799.7z"/>
			<path id="XMLID_670_" d="M826.5,799.7h-5.4l-1.8-1.6l0.1-0.1l-1.3-1.4v-9.2l1.3-1.4l-1.3-1.3v-9.2l1.6-1.8l0,0l1.4-1.3h5.4
				l1.4,1.3l1.3-1.3h5.4l1.8,1.6l0,0l1.3,1.4v9.2l-1.3,1.4l1.3,1.3v9.2l-1.6,1.8l-0.1-0.1l-1.3,1.3h-5.4l-1.4-1.3L826.5,799.7z
				 M822.6,796.4h3.9l1.4,1.3l1.3-1.3h5.1v-8.9l1.3-1.4l-1.3-1.3v-5l-3.7,5.4h-1.8v-3l4.3-6.3h-3.9l-1.4-1.3l-1.3,1.3h-5.1v8.9
				l-1.3,1.4l1.3,1.3v5l3.7-5.4h1.8v3L822.6,796.4z"/>
			<path id="XMLID_673_" d="M850.6,785c-0.6,0-1.1-0.2-1.5-0.7c-0.4-0.5-0.6-1-0.6-1.7c0-0.6,0.2-1.2,0.6-1.7
				c0.4-0.5,0.9-0.7,1.5-0.7c0.6,0,1.1,0.2,1.5,0.7c0.4,0.5,0.6,1.1,0.6,1.7c0,0.6-0.2,1.2-0.6,1.7C851.7,784.7,851.2,785,850.6,785
				z M850.6,791.9c-0.6,0-1.1-0.3-1.5-0.8c-0.4-0.5-0.6-1-0.6-1.7c0-0.6,0.2-1.2,0.6-1.7c0.4-0.5,0.9-0.7,1.5-0.7
				c0.6,0,1.1,0.2,1.5,0.7c0.4,0.5,0.6,1,0.6,1.6c0,0.6-0.2,1.2-0.6,1.7C851.7,791.7,851.2,791.9,850.6,791.9z"/>
			<path id="XMLID_676_" d="M872,799.7h-5.3l-1.8-1.6l1.7-1.7h5.1v-8.9l1.3-1.4l-1.3-1.3v-8.9h-5l-1.8-1.6l1.7-1.7h5.3l1.7,1.6
				l-0.1,0.1l1.3,1.4v9.2l-1.3,1.4l1.3,1.3v8.9h5l1.8,1.6l-1.7,1.7h-5.3l-1.4-1.3L872,799.7z"/>
			<path id="XMLID_678_" d="M894.8,799.7h-5.4l-1.8-1.6l0.1-0.1l-1.3-1.4v-9.2l1.3-1.4l-1.3-1.3v-9.2l1.6-1.8l0,0l1.4-1.3h5.4
				l1.4,1.3l1.3-1.3h5.4l1.8,1.6l0,0l1.3,1.4v9.2l-1.3,1.4l1.3,1.3v9.2l-1.6,1.8l-0.1-0.1l-1.3,1.3h-5.4l-1.4-1.3L894.8,799.7z
				 M890.9,796.4h3.9l1.4,1.3l1.3-1.3h5.1v-8.9l1.3-1.4l-1.3-1.3v-5l-3.7,5.4h-1.8v-3l4.3-6.3h-3.9l-1.4-1.3l-1.3,1.3h-5.1v8.9
				l-1.3,1.4l1.3,1.3v5l3.7-5.4h1.8v3L890.9,796.4z"/>
		</g>
	</g>
	<g id="XMLID_226_">
		<g id="XMLID_651_">
			<path id="XMLID_48_" d="M623.3,749.1H470.8c-12.9,0-23.4,10.5-23.4,23.4v79.7c0,12.9,10.5,23.4,23.4,23.4h152.6
				c12.9,0,23.4-10.5,23.4-23.4v-79.7C646.7,759.5,636.2,749.1,623.3,749.1z M635.5,850.9c0,7.4-6,13.4-13.4,13.4H472
				c-7.4,0-13.4-6-13.4-13.4v-77.3c0-7.4,6-13.4,13.4-13.4h150.2c7.4,0,13.4,6,13.4,13.4V850.9z"/>
		</g>
		<g id="XMLID_108_">
			<path id="XMLID_233_" d="M482.3,831.9h-7.6l-2.5-2.3l0.1-0.1l-1.8-2v-12.8l1.8-2l-1.8-1.9V798l2.2-2.5l0,0l1.9-1.8h7.6l2,1.8
				l1.8-1.8h7.6l2.5,2.3l0,0l1.8,1.9v12.9l-1.8,2l1.8,1.9v12.8l-2.2,2.6l-0.1-0.1l-1.9,1.8h-7.6l-2-1.8L482.3,831.9z M476.8,827.2
				h5.4l1.9,1.8l1.8-1.8h7.2v-12.5l1.8-2l-1.8-1.9v-7l-5.2,7.5h-2.5v-4.2l6-8.8H486l-1.9-1.8l-1.8,1.8h-7.2v12.5l-1.8,2l1.8,1.9v7
				l5.2-7.5h2.5v4.2L476.8,827.2z"/>
			<path id="XMLID_239_" d="M514.1,831.9h-7.6l-2.5-2.3l2.5-2.4h7.6l2,1.8l1.8-1.8h7.2v-12.1h-7.2l-2-1.8l-1.8,1.8h-7.6l-2.5-2.3
				l0.1,0l-1.8-1.9V798l2.2-2.5l0,0l1.9-1.8h7.6l2,1.8l1.8-1.8h7.6l2.5,2.3l0,0l1.8,1.9v12.9l-1.8,2l1.8,1.9v12.8l-2.2,2.6l-0.1-0.1
				l-1.9,1.8h-7.6l-2-1.8L514.1,831.9z M507,810.5h7.2l2,1.8l1.8-1.8h7.2v-12.1h-7.2l-2-1.8l-1.8,1.8H507V810.5z"/>
			<path id="XMLID_659_" d="M547.9,811.3c-0.8,0-1.5-0.3-2.1-1c-0.5-0.7-0.8-1.4-0.8-2.3c0-0.9,0.3-1.7,0.8-2.3c0.5-0.7,1.2-1,2.1-1
				s1.5,0.3,2.1,1c0.5,0.7,0.8,1.5,0.8,2.3c0,0.9-0.3,1.6-0.8,2.3C549.4,810.9,548.7,811.3,547.9,811.3z M547.9,821
				c-0.8,0-1.6-0.4-2.1-1.1c-0.5-0.7-0.8-1.4-0.8-2.3c0-0.9,0.3-1.7,0.8-2.3c0.5-0.7,1.2-1,2.1-1c0.8,0,1.5,0.3,2.1,1
				c0.5,0.7,0.8,1.4,0.8,2.3c0,0.9-0.3,1.6-0.8,2.4C549.4,820.7,548.7,821,547.9,821z"/>
			<path id="XMLID_662_" d="M577.8,831.9h-7.6l-2.5-2.3l0.1-0.1l-1.8-2v-12.8l1.8-2l-1.8-1.9V798l2.2-2.5l0,0l1.9-1.8h7.6l2,1.8
				l1.8-1.8h7.6l2.5,2.3l0,0l1.8,1.9v12.9l-1.8,2l1.8,1.9v12.8l-2.2,2.6l-0.1-0.1l-1.9,1.8h-7.6l-2-1.8L577.8,831.9z M572.4,827.2
				h5.4l1.9,1.8l1.8-1.8h7.2v-12.5l1.8-2l-1.8-1.9v-7l-5.2,7.5h-2.5v-4.2l6-8.8h-5.4l-1.9-1.8l-1.8,1.8h-7.2v12.5l-1.8,2l1.8,1.9v7
				l5.2-7.5h2.5v4.2L572.4,827.2z"/>
			<path id="XMLID_665_" d="M609.7,831.9h-7.6l-2.5-2.3l2.5-2.4h7.6l2,1.8l1.8-1.8h7.2v-12.1h-7.2l-2-1.8l-1.8,1.8h-7.6l-2.5-2.3
				l0.1,0l-1.8-1.9V798l2.2-2.5l0,0l1.9-1.8h7.6l2,1.8l1.8-1.8h7.6l2.5,2.3l0,0l1.8,1.9v12.9l-1.8,2l1.8,1.9v12.8l-2.2,2.6l-0.1-0.1
				l-1.9,1.8h-7.6l-2-1.8L609.7,831.9z M602.5,810.5h7.2l2,1.8l1.8-1.8h7.2v-12.1h-7.2l-2-1.8l-1.8,1.8h-7.2V810.5z"/>
		</g>
		<g id="XMLID_183_">
			<g id="XMLID_50_">
				<path id="XMLID_805_" d="M483.6,891.3h-1.2c-2.8,0-5-2.2-5-5v-10.6c0-2.8,2.2-5,5-5h1.2c2.8,0,5,2.2,5,5v10.6
					C488.6,889.1,486.4,891.3,483.6,891.3z"/>
			</g>
			<g id="XMLID_185_">
				<path id="XMLID_804_" d="M611.6,891.3h-1.2c-2.8,0-5-2.2-5-5v-10.6c0-2.8,2.2-5,5-5h1.2c2.8,0,5,2.2,5,5v10.6
					C616.6,889.1,614.4,891.3,611.6,891.3z"/>
			</g>
		</g>
		<g id="XMLID_187_">
			<g id="XMLID_186_">
				<circle id="XMLID_803_" cx="605.4" cy="750.9" r="8.4"/>
			</g>
			<g id="XMLID_188_">
				<circle id="XMLID_802_" cx="582.5" cy="750.9" r="8.4"/>
			</g>
		</g>
	</g>
</g>
</svg>
