<?xml version="1.0" encoding="utf-8"?>
<!-- Generator: Adobe Illustrator 25.2.0, SVG Export Plug-In . SVG Version: 6.00 Build 0)  -->
<svg version="1.1" id="Layer_1" xmlns="http://www.w3.org/2000/svg" xmlns:xlink="http://www.w3.org/1999/xlink" x="0px" y="0px"
	 viewBox="0 0 595.3 841.9" style="enable-background:new 0 0 595.3 841.9;" xml:space="preserve">
<path d="M302.1,419.3v-1.8h-0.6l-0.6-0.6v-0.6c0-0.3-0.3-0.6-0.6-0.6h-5.4c-0.3,0-0.6,0.3-0.6,0.6v7.3l6.6-3.4v-1.5h0.6
	c0,0,0,0.5,0,0.9c0,0.6,1.2,1.2,1.2,1.8v3c0,0.3-0.3,0.3-0.3,0.3s-0.3,0-0.3-0.3c0,0,0-1.2,0-1.5s-0.3-0.6-0.6-0.6
	c-0.1,0-0.3,0-0.4,0l-6.8,3.5v0.1c0,0.3,0.3,0.6,0.6,0.6h5.4c0.3,0,0.6-0.3,0.6-0.6v-3h0.3c0.3,0,0.3,0.3,0.3,0.3v1.2
	c0,0.6,0.3,0.9,0.9,0.9s0.9-0.3,0.9-0.9c0-0.7,0-2.7,0-3.3S302.1,419.9,302.1,419.3z M299.7,419.3h-4.2v-2.4h4.2V419.3z"/>
</svg>
