<?xml version="1.0" encoding="utf-8"?>
<!-- Generator: Adobe Illustrator 25.2.0, SVG Export Plug-In . SVG Version: 6.00 Build 0)  -->
<svg version="1.1" id="Layer_1" xmlns="http://www.w3.org/2000/svg" xmlns:xlink="http://www.w3.org/1999/xlink" x="0px" y="0px"
	 viewBox="0 0 595.3 841.9" style="enable-background:new 0 0 595.3 841.9;" xml:space="preserve">
<style type="text/css">
	.st0{fill:#010101;}
</style>
<g>
	<path class="st0" d="M301.4,420.2h-7.9c-0.4,0-0.7-0.3-0.7-0.7c0-0.1,0-0.2,0.1-0.3l1.3-2.6c0.1-0.2,0.3-0.4,0.6-0.4h5.3
		c0.2,0,0.5,0.1,0.6,0.4l1.3,2.6c0.2,0.3,0,0.7-0.3,0.9C301.6,420.2,301.5,420.2,301.4,420.2z M294.5,418.9h5.8l-0.7-1.3h-4.5
		L294.5,418.9z"/>
	<path class="st0" d="M302,424.2h-9.2c-0.4,0-0.7-0.3-0.7-0.7v-2.6c0-0.1,0-0.2,0.1-0.3l0.7-1.3c0.1-0.2,0.3-0.4,0.6-0.4h7.9
		c0.2,0,0.5,0.1,0.6,0.4l0.7,1.3c0,0.1,0.1,0.2,0.1,0.3v2.6C302.7,423.9,302.4,424.2,302,424.2z M293.4,422.8h7.9V421l-0.4-0.8h-7.1
		l-0.4,0.8V422.8z"/>
	<path class="st0" d="M293.4,419.5h-1.3c-0.4,0-0.7-0.3-0.7-0.7c0-0.4,0.3-0.7,0.7-0.7h1.3c0.4,0,0.7,0.3,0.7,0.7
		C294.1,419.2,293.8,419.5,293.4,419.5z"/>
	<path class="st0" d="M294.8,422.2h-2c-0.4,0-0.7-0.3-0.7-0.7c0-0.4,0.3-0.7,0.7-0.7h2c0.4,0,0.7,0.3,0.7,0.7
		C295.4,421.9,295.1,422.2,294.8,422.2z"/>
	<path class="st0" d="M302,422.2h-2c-0.4,0-0.7-0.3-0.7-0.7c0-0.4,0.3-0.7,0.7-0.7h2c0.4,0,0.7,0.3,0.7,0.7
		C302.7,421.9,302.4,422.2,302,422.2z"/>
	<path class="st0" d="M302.7,419.5h-1.3c-0.4,0-0.7-0.3-0.7-0.7c0-0.4,0.3-0.7,0.7-0.7h1.3c0.4,0,0.7,0.3,0.7,0.7
		C303.3,419.2,303,419.5,302.7,419.5z"/>
	<path class="st0" d="M294.8,426.1h-2c-0.4,0-0.7-0.3-0.7-0.7v-2c0-0.4,0.3-0.7,0.7-0.7h2c0.4,0,0.7,0.3,0.7,0.7v2
		C295.4,425.8,295.1,426.1,294.8,426.1z M293.4,424.8h0.7v-0.7h-0.7V424.8z"/>
	<path class="st0" d="M302,426.1h-2c-0.4,0-0.7-0.3-0.7-0.7v-2c0-0.4,0.3-0.7,0.7-0.7h2c0.4,0,0.7,0.3,0.7,0.7v2
		C302.7,425.8,302.4,426.1,302,426.1z M300.7,424.8h0.7v-0.7h-0.7V424.8z"/>
</g>
</svg>
