<?xml version="1.0" encoding="utf-8"?>
<!-- Generator: Adobe Illustrator 25.2.0, SVG Export Plug-In . SVG Version: 6.00 Build 0)  -->
<svg version="1.1" id="Layer_1" xmlns="http://www.w3.org/2000/svg" xmlns:xlink="http://www.w3.org/1999/xlink" x="0px" y="0px"
	 viewBox="0 0 595.3 841.9" style="enable-background:new 0 0 595.3 841.9;" xml:space="preserve">
<g>
	<path d="M299.1,416.9h-7c-0.3,0-0.6-0.3-0.6-0.6c0-0.1,0-0.2,0.1-0.3l1.2-2.3c0.1-0.2,0.3-0.3,0.5-0.3h4.7c0.2,0,0.4,0.1,0.5,0.3
		l1.2,2.3c0.1,0.3,0,0.6-0.3,0.8C299.3,416.8,299.2,416.9,299.1,416.9z M293,415.7h5.1l-0.6-1.2h-4L293,415.7z"/>
	<path d="M299.7,420.4h-8.2c-0.3,0-0.6-0.3-0.6-0.6v-2.3c0-0.1,0-0.2,0.1-0.3l0.6-1.2c0.1-0.2,0.3-0.3,0.5-0.3h7
		c0.2,0,0.4,0.1,0.5,0.3l0.6,1.2c0,0.1,0.1,0.2,0.1,0.3v2.3C300.3,420.1,300,420.4,299.7,420.4z M292.1,419.2h7v-1.6l-0.4-0.7h-6.3
		l-0.4,0.7V419.2z"/>
	<path d="M292.1,416.3h-1.2c-0.3,0-0.6-0.3-0.6-0.6s0.3-0.6,0.6-0.6h1.2c0.3,0,0.6,0.3,0.6,0.6S292.4,416.3,292.1,416.3z"/>
	<path d="M293.3,418.6h-1.8c-0.3,0-0.6-0.3-0.6-0.6s0.3-0.6,0.6-0.6h1.8c0.3,0,0.6,0.3,0.6,0.6S293.6,418.6,293.3,418.6z"/>
	<path d="M299.7,418.6H298c-0.3,0-0.6-0.3-0.6-0.6s0.3-0.6,0.6-0.6h1.8c0.3,0,0.6,0.3,0.6,0.6S300,418.6,299.7,418.6z"/>
	<path d="M300.3,416.3h-1.2c-0.3,0-0.6-0.3-0.6-0.6s0.3-0.6,0.6-0.6h1.2c0.3,0,0.6,0.3,0.6,0.6S300.6,416.3,300.3,416.3z"/>
	<path d="M293.3,422.1h-1.8c-0.3,0-0.6-0.3-0.6-0.6v-1.8c0-0.3,0.3-0.6,0.6-0.6h1.8c0.3,0,0.6,0.3,0.6,0.6v1.8
		C293.9,421.9,293.6,422.1,293.3,422.1z M292.1,421h0.6v-0.6h-0.6V421z"/>
	<path d="M299.7,422.1H298c-0.3,0-0.6-0.3-0.6-0.6v-1.8c0-0.3,0.3-0.6,0.6-0.6h1.8c0.3,0,0.6,0.3,0.6,0.6v1.8
		C300.3,421.9,300,422.1,299.7,422.1z M298.5,421h0.6v-0.6h-0.6V421z"/>
	<path d="M290.9,429.8c-0.3,0-0.6-0.3-0.6-0.6c0-0.2,0.1-0.4,0.3-0.5l0.9-0.5c0.3-0.1,0.5-0.4,0.6-0.8c0-0.3-0.2-0.6-0.5-0.8
		c-0.7-0.4-1.1-1.1-1-1.9c0.1-0.9,0.7-1.6,1.5-1.8l0.1-0.1c0.3-0.1,0.6,0,0.8,0.3c0.1,0.3,0,0.6-0.3,0.8l-0.1,0.1
		c-0.4,0.1-0.7,0.4-0.8,0.9c0,0.4,0.2,0.7,0.5,0.8c0.6,0.4,1,1.1,1,1.8c0,0.8-0.5,1.4-1.2,1.8l-0.9,0.5
		C291.1,429.7,291,429.8,290.9,429.8z"/>
	<path d="M298.5,429.8c-0.3,0-0.6-0.3-0.6-0.6c0-0.2,0.1-0.4,0.3-0.5l0.9-0.5c0.3-0.1,0.5-0.4,0.6-0.8c0-0.3-0.2-0.6-0.5-0.8
		c-0.7-0.4-1.1-1.1-1-1.9c0.1-0.9,0.7-1.6,1.5-1.8l0.1-0.1c0.3-0.1,0.6,0,0.8,0.3c0.1,0.3,0,0.6-0.3,0.8l-0.1,0.1
		c-0.4,0.1-0.7,0.4-0.8,0.9c0,0.4,0.2,0.7,0.5,0.8c0.6,0.4,1,1.1,1,1.8c0,0.8-0.5,1.4-1.2,1.8l-0.9,0.5
		C298.7,429.7,298.6,429.8,298.5,429.8z"/>
</g>
</svg>
