<?xml version="1.0" encoding="utf-8"?>
<!-- Generator: Adobe Illustrator 25.2.0, SVG Export Plug-In . SVG Version: 6.00 Build 0)  -->
<svg version="1.1" id="Layer_1" xmlns="http://www.w3.org/2000/svg" xmlns:xlink="http://www.w3.org/1999/xlink" x="0px" y="0px"
	 viewBox="0 0 595.3 841.9" style="enable-background:new 0 0 595.3 841.9;" xml:space="preserve">
<path d="M298,418v-1h0.7c0.3,0,0.5-0.2,0.5-0.5c0-0.3-0.2-0.5-0.5-0.5h-2.8c-0.3,0-0.5,0.2-0.5,0.5c0,0.3,0.2,0.5,0.5,0.5h0.7v1
	c-2.1,0.3-3.6,2.1-3.6,4.3c0,2.4,1.9,4.3,4.3,4.3c2.4,0,4.3-1.9,4.3-4.3C301.6,420.1,300,418.3,298,418z M299.6,422.8h-1.8
	c-0.1,0.2-0.4,0.3-0.6,0.3c-0.4,0-0.8-0.4-0.8-0.8c0-0.3,0.1-0.5,0.3-0.6v-1.5c0-0.3,0.2-0.5,0.5-0.5s0.5,0.2,0.5,0.5v1.5
	c0.1,0,0.1,0.1,0.1,0.1h1.8c0.3,0,0.5,0.2,0.5,0.5S299.9,422.8,299.6,422.8z"/>
</svg>
