<?xml version="1.0"?>
<svg xmlns="http://www.w3.org/2000/svg" viewBox="0 0 24 24" enable-background="new 0 0 24 24">
    <path d="M 2.6875 7 C 2.581 7.015125 2.47425 7.06975 2.40625 7.15625 L 1.9375 7.78125 C 1.8015 7.95425 1.79775 8.217 1.96875 8.375 L 3 9.5 L 3 14.5 C 3 14.781469 2.7814686 15 2.5 15 C 2.2185314 15 2 14.781469 2 14.5 A 0.50005 0.50005 0 1 0 1 14.5 C 1 15.322531 1.6774686 16 2.5 16 C 3.3225314 16 4 15.322531 4 14.5 L 4 10.59375 L 8 14.9375 L 8 17 L 0.875 17 C 0.394 17 0 17.394 0 17.875 L 0 20.125 C 0 20.606 0.394 21 0.875 21 L 3 21 C 3 22.657 4.343 24 6 24 C 7.657 24 9 22.657 9 21 L 15.125 21 L 16 21 C 16 22.657 17.343 24 19 24 C 20.657 24 22 22.657 22 21 L 23.34375 21 C 23.43425 21 23.515281 20.970719 23.59375 20.9375 C 23.750687 20.871063 23.871063 20.750688 23.9375 20.59375 C 23.970719 20.515281 24 20.43425 24 20.34375 L 24 15.1875 C 24 15.0585 23.947 14.95175 23.875 14.84375 L 20.1875 9.28125 C 20.0655 9.10025 19.87525 9 19.65625 9 L 14.65625 9 C 14.29525 9 14 9.29425 14 9.65625 L 14 17 L 13 17 L 13 14.875 C 13 14.205 12.92225 13.906 12.53125 13.625 C 12.14025 13.344 3 7.0625 3 7.0625 C 2.903 6.9975 2.794 6.984875 2.6875 7 z M 17 11 L 19.53125 11 L 22.1875 15 L 17 15 L 17 11 z M 6 19.5 C 6.827 19.5 7.5 20.173 7.5 21 C 7.5 21.827 6.827 22.5 6 22.5 C 5.173 22.5 4.5 21.827 4.5 21 C 4.5 20.173 5.173 19.5 6 19.5 z M 19 19.5 C 19.827 19.5 20.5 20.173 20.5 21 C 20.5 21.827 19.827 22.5 19 22.5 C 18.173 22.5 17.5 21.827 17.5 21 C 17.5 20.173 18.173 19.5 19 19.5 z"/>
</svg>
