<?xml version="1.0" encoding="utf-8"?>
<!-- Generator: Adobe Illustrator 25.2.0, SVG Export Plug-In . SVG Version: 6.00 Build 0)  -->
<svg version="1.1" id="Capa_1" xmlns="http://www.w3.org/2000/svg" xmlns:xlink="http://www.w3.org/1999/xlink" x="0px" y="0px"
	 viewBox="0 0 512 512" style="enable-background:new 0 0 512 512;" xml:space="preserve">
<g>
	<g>
		<path d="M503.7,151.6c-26.3-13.2-49.7-24.4-82.6-35.1c0.6-3.7,0.9-7.6,0.9-11.5c0-17.5-10.9-39.4-33.4-66.9
			c-15.4-18.9-30.7-33.4-31.3-34c-5.8-5.5-14.9-5.5-20.6,0c-0.6,0.6-15.9,15.1-31.3,34c-16.6,20.4-27,37.7-31.2,52.4
			c-91.6-3.2-176.4,16.4-265.9,61.1c-7.4,3.7-10.4,12.7-6.7,20.1l101.1,202.2c3.3,6.6,11,9.8,18,7.6c22.3-7.2,45.1-12.6,68-16.2
			l34.9,69.5C215.2,443,210,454.4,210,467c0,24.8,20.2,45,45,45s45-20.2,45-45c0-26.2-22.5-47.2-49.1-44.8l-30.4-60.6
			c11.5-0.9,23-1.4,34.5-1.4c46.3,0,93.4,7.4,136.3,21.3c7.1,2.3,14.7-0.9,18-7.6l101.1-202.2C514.1,164.3,511.1,155.3,503.7,151.6z
			 M255,452c8.3,0,15,6.7,15,15s-6.7,15-15,15s-15-6.7-15-15S246.7,452,255,452z M347,36.2c21.2,22.2,45,53,45,68.8
			c0,24.8-20.2,45-45,45s-45-20.2-45-45C302,89.3,325.8,58.4,347,36.2z M388.2,349.1c-42.4-12.4-88.2-18.9-133.2-18.9
			c-16.4,0-32.7,0.9-49,2.6l-76.4-152.3c-3.7-7.4-12.7-10.4-20.1-6.7c-7.4,3.7-10.4,12.7-6.7,20.1l71.9,143.3
			c-17.1,3-34.1,7-50.9,11.9L35.2,171.9c80-37.8,156.4-54.3,238.4-51.4c7.2,34,37.3,59.5,73.4,59.5c26.8,0,50.4-14.2,63.6-35.4
			c26,8.4,45.8,17.2,66.2,27.1L388.2,349.1z"/>
	</g>
</g>
</svg>
