<svg id="Layer_1" data-name="Layer 1"
    xmlns="http://www.w3.org/2000/svg" viewBox="0 0 97.96 72.27">
    <defs>
        <style>.cls-1{fill:useCurrent;}</style>
    </defs>
    <path class="cls-1" d="M314.93,466.88c.14.06.27.13.41.18a36,36,0,0,0,16.83,2.71A35.63,35.63,0,0,0,345.59,466a8.78,8.78,0,0,1,9.61,1,12.48,12.48,0,0,0,8.09,2.89A12.67,12.67,0,0,0,375.76,458a12.53,12.53,0,0,0-6.26-11.49,8.46,8.46,0,0,1-4.31-8.35c.08-.69.14-1.38.19-2.09a36.24,36.24,0,0,0-1.49-12.77,2.84,2.84,0,0,1,2.69-3.69h21.16a3.41,3.41,0,0,0,3.41-3.4V401a3.41,3.41,0,0,0-3.41-3.4H330A37,37,0,0,0,306.73,406l-.08.07c-.43.35-.85.7-1.26,1.07l-.1.09c-.41.37-.81.74-1.2,1.12l0,.06a35.55,35.55,0,0,0-10.86,25.07A36.08,36.08,0,0,0,309,463.64l.17.12c.44.29.88.58,1.33.85l.47.27c.36.21.71.42,1.08.62s.55.29.82.42.52.28.78.4C314.1,466.52,314.52,466.7,314.93,466.88Z" transform="translate(-293.18 -397.63)"/>
</svg>