<svg id="Layer_1" data-name="Layer 1"
    xmlns="http://www.w3.org/2000/svg" viewBox="0 0 90.48 72.25">
    <defs>
        <style>.cls-1{fill:useCurrent;}</style>
    </defs>
    <path class="cls-1" d="M297.33,401.83,303,415.49a6.84,6.84,0,0,0,6,3.48h5.19a2.84,2.84,0,0,1,2.69,3.69,36.27,36.27,0,0,0-1.49,12.78c0,.7.11,1.39.19,2.08a8.46,8.46,0,0,1-4.31,8.35,12.56,12.56,0,1,0,14.3,20.55,8.76,8.76,0,0,1,9.61-1,35.63,35.63,0,0,0,13.42,3.77,36.12,36.12,0,0,0,39-35.77c.13-20-16.84-36.36-36.84-36.36H300a3.44,3.44,0,0,0-.46,0C297.33,397.38,296.57,399.62,297.33,401.83Z" transform="translate(-297.04 -397.05)"/>
</svg>