<svg id="Layer_1" data-name="Layer 1"
    xmlns="http://www.w3.org/2000/svg" viewBox="0 0 38.74 64.99">
    <path fill="currentColor" class="main" d="M563.46,799.53V765.74a9,9,0,0,0-9-9H533.76a9,9,0,0,0-9,9V805a2.1,2.1,0,0,0,.17.84,2.17,2.17,0,0,0,2,1.33h.45a2.09,2.09,0,0,1,.67.1,2.17,2.17,0,0,1,.86,3.59l-.46.46a2.16,2.16,0,0,0,0,3l3.77,3.77a2,2,0,0,0,1.11.59,2,2,0,0,0,.42,0,2.18,2.18,0,0,0,1.53-.63l.34-.35a2.17,2.17,0,0,1,3.59.86,2.09,2.09,0,0,1,.11.67v.23a2.37,2.37,0,0,0,.16.84,2.18,2.18,0,0,0,2,1.32h5.32a2.16,2.16,0,0,0,2.17-2.16,2.15,2.15,0,0,1,.1-.68,2.19,2.19,0,0,1,1.82-1.48,2.13,2.13,0,0,1,1.77.63l.12.12a2.08,2.08,0,0,0,1.12.59,2,2,0,0,0,.41,0,2.15,2.15,0,0,0,1.53-.63l3.77-3.77a2,2,0,0,0,.47-.71,2.1,2.1,0,0,0,0-1.63,2,2,0,0,0-.47-.71l-.46-.46a2.17,2.17,0,0,1,.86-3.59,2.09,2.09,0,0,1,.67-.1h.67a2.16,2.16,0,0,0,2-1.33,2.1,2.1,0,0,0,.17-.84v-5.32A.78.78,0,0,0,563.46,799.53Z" transform="translate(-524.74 -756.72)"/>
</svg>