<svg id="Layer_1" data-name="Layer 1"
    xmlns="http://www.w3.org/2000/svg" viewBox="0 0 10.57 8.43">
    <defs>
        <style>.cls-1{fill:useCurrent;}</style>
    </defs>
    <path class="cls-1" d="M294.7,424.39v-.16a3,3,0,0,1,2.3-3,2.76,2.76,0,0,1,.75-.1,3.06,3.06,0,0,1,2.07.81l.79-.85a4.23,4.23,0,0,0-2.86-1.12,4,4,0,0,0-1,.13,4.17,4.17,0,0,0-1.31.58,4.06,4.06,0,0,0-1,.94,4.18,4.18,0,0,0-.88,2.56.81.81,0,0,0,0,.16h-1.07l1.67,2.16,1.68-2.16Z" transform="translate(-292.47 -420.02)"/>
    <path class="cls-1" d="M303,424.08l-1.67-2.16-1.68,2.16h1.12v.16a3,3,0,0,1-2.3,3,3.2,3.2,0,0,1-.75.09,3.06,3.06,0,0,1-2.07-.81l-.79.85a4.17,4.17,0,0,0,2.86,1.12,4,4,0,0,0,1-.13,4.14,4.14,0,0,0,1.31-.57,4.47,4.47,0,0,0,1-.94,4.23,4.23,0,0,0,.88-2.57.86.86,0,0,0,0-.16Z" transform="translate(-292.47 -420.02)"/>
</svg>