<svg id="Layer_1" data-name="Layer 1"
    xmlns="http://www.w3.org/2000/svg" viewBox="0 0 10.2 11.57">
    <defs>
        <style>.cls-1,.cls-2{fill:useCurrent;stroke:useCurrent;stroke-miterlimit:10;}.cls-2{stroke-linecap:round;stroke-width:1.08px;}</style>
    </defs>
    <path id="Path_168" data-name="Path 168" class="cls-1" d="M297.48,424.24v-4.58L295.19,422" transform="translate(-292.4 -418.45)"/>
    <path id="Path_169" data-name="Path 169" class="cls-1" d="M297.48,427v1.84l-2.29-2.29H292.9V422h.74Z" transform="translate(-292.4 -418.45)"/>
    <path id="Path_170" data-name="Path 170" class="cls-2" d="M299.77,424.24a5.84,5.84,0,0,0-.86-3.15" transform="translate(-292.4 -418.45)"/>
    <path id="Path_171" data-name="Path 171" class="cls-2" d="M302.06,424.24a8.67,8.67,0,0,0-1.49-4.81" transform="translate(-292.4 -418.45)"/>
    <path id="Path_172" data-name="Path 172" class="cls-2" d="M299.77,424.58a5.2,5.2,0,0,1-.23,1.66" transform="translate(-292.4 -418.45)"/>
    <path id="Path_173" data-name="Path 173" class="cls-2" d="M302.06,424.58a8.47,8.47,0,0,1-.52,3,3.88,3.88,0,0,1-.4.91" transform="translate(-292.4 -418.45)"/>
    <line id="Line_133" data-name="Line 133" class="cls-2" x1="1.07" y1="0.63" x2="9.09" y2="10.94"/>
</svg>