<svg id="Layer_1" data-name="Layer 1"
    xmlns="http://www.w3.org/2000/svg" viewBox="0 0 24 17.01">
    <path fill="currentColor" d="M2.69,7a.42.42,0,0,0-.28.16l-.47.62a.45.45,0,0,0,0,.6L3,9.5v5a.5.5,0,0,1-1,0,.5.5,0,1,0-1,0H1a1.5,1.5,0,0,0,3,0V10.59l4,4.35V17H.88a.87.87,0,0,0-.88.88v2.25A.87.87,0,0,0,.88,21H3a3,3,0,0,0,6,0h7a3,3,0,0,0,6,0h1.34a.66.66,0,0,0,.25-.06.67.67,0,0,0,.35-.35.66.66,0,0,0,.06-.25V15.19a.64.64,0,0,0-.12-.35L20.19,9.28A.62.62,0,0,0,19.66,9h-5a.66.66,0,0,0-.66.66V17H13V14.88c0-.68-.08-1-.47-1.25S3,7.06,3,7.06A.44.44,0,0,0,2.69,7ZM17,11h2.53l2.66,4H17ZM6,19.5A1.5,1.5,0,1,1,4.5,21,1.5,1.5,0,0,1,6,19.5Zm13,0A1.5,1.5,0,1,1,17.5,21,1.5,1.5,0,0,1,19,19.5Z" transform="translate(0 -6.99)"/>
</svg>