<svg id="Layer_1" data-name="Layer 1"
    xmlns="http://www.w3.org/2000/svg" viewBox="0 0 108.79 83.54">
    <defs>
        <style>.cls-1{fill:useCurrent;}.cls-2{fill:#010101;}</style>
    </defs>
    <path class="cls-1" d="M443.3,610.25h-63l-.69,0A41.85,41.85,0,1,0,415.09,630l0-.1c-1.93-4.18,1.17-4.71,2.38-4.76H443.3a3.35,3.35,0,0,0,3.34-3.35v-8.2A3.35,3.35,0,0,0,443.3,610.25Z" transform="translate(-337.85 -610.23)"/>
    <path class="cls-2" d="M381.58,622.3a.71.71,0,0,0,.14-.43v-1.76l-1.23,1.61a.71.71,0,0,1-1.11,0l-1.23-1.61v1.76a.71.71,0,0,0,.14.43l1.09,1.42a.71.71,0,0,0,1.11,0Z" transform="translate(-337.85 -610.23)"/>
    <path class="cls-2" d="M409.61,653.58a.76.76,0,0,0,.43.14h1.76l-1.61-1.24a.7.7,0,0,1,0-1.11l1.6-1.23h-1.75a.71.71,0,0,0-.43.14l-1.42,1.09a.71.71,0,0,0,0,1.11Z" transform="translate(-337.85 -610.23)"/>
    <path class="cls-2" d="M378.28,681.55a.66.66,0,0,0-.15.43v1.75l1.24-1.6a.69.69,0,0,1,1.1,0l1.23,1.61V682a.7.7,0,0,0-.15-.43l-1.08-1.42a.71.71,0,0,0-1.11,0Z" transform="translate(-337.85 -610.23)"/>
    <path class="cls-2" d="M350.37,650.16a.72.72,0,0,0-.43-.15h-1.76l1.6,1.25a.7.7,0,0,1,0,1.1l-1.62,1.23h1.76a.71.71,0,0,0,.43-.14l1.42-1.09a.69.69,0,0,0,0-1.1Z" transform="translate(-337.85 -610.23)"/>
    <path class="cls-2" d="M360.16,629.85a.67.67,0,0,0-.2-.4l-1.24-1.25.26,2a.7.7,0,0,1-.78.78l-2-.26,1.24,1.24a.69.69,0,0,0,.41.2l1.77.23a.69.69,0,0,0,.78-.78Z" transform="translate(-337.85 -610.23)"/>
    <path class="cls-2" d="M402.1,632.14a.75.75,0,0,0,.4-.19l1.25-1.25-2,.26a.7.7,0,0,1-.78-.78l.27-2L400,629.41a.69.69,0,0,0-.2.41l-.23,1.77a.69.69,0,0,0,.78.78Z" transform="translate(-337.85 -610.23)"/>
    <path class="cls-2" d="M399.72,674.08a.67.67,0,0,0,.2.4l1.24,1.25-.26-2a.69.69,0,0,1,.79-.77l2,.27L402.46,672a.69.69,0,0,0-.41-.2l-1.77-.24a.69.69,0,0,0-.78.78Z" transform="translate(-337.85 -610.23)"/>
    <path class="cls-2" d="M357.79,671.62a.7.7,0,0,0-.4.2l-1.25,1.23,2-.25a.7.7,0,0,1,.78.79l-.27,2,1.25-1.24a.7.7,0,0,0,.2-.4l.24-1.77a.7.7,0,0,0-.78-.79Z" transform="translate(-337.85 -610.23)"/>
    <path class="cls-2" d="M408,642.19a.77.77,0,0,0,.45,0l1.62-.67-1.95-.53a.7.7,0,0,1-.42-1l1-1.75-1.63.67a.67.67,0,0,0-.33.29l-.9,1.55a.69.69,0,0,0,.41,1Z" transform="translate(-337.85 -610.23)"/>
    <path class="cls-2" d="M389.67,680a.7.7,0,0,0,0,.45l.66,1.62.54-1.95a.7.7,0,0,1,1-.41l1.75,1-.67-1.63a.69.69,0,0,0-.29-.34l-1.54-.9a.7.7,0,0,0-1,.41Z" transform="translate(-337.85 -610.23)"/>
    <path class="cls-2" d="M351.92,661.55a.69.69,0,0,0-.45,0l-1.63.65,2,.55a.7.7,0,0,1,.42,1l-1,1.75,1.63-.66a.74.74,0,0,0,.34-.29l.91-1.54a.7.7,0,0,0-.42-1Z" transform="translate(-337.85 -610.23)"/>
    <path class="cls-2" d="M370.42,623.84a.69.69,0,0,0,0-.45l-.65-1.63-.55,2a.69.69,0,0,1-1,.41l-1.75-1,.66,1.63a.65.65,0,0,0,.29.34l1.54.91a.7.7,0,0,0,1-.41Z" transform="translate(-337.85 -610.23)"/>
    <path class="cls-2" d="M392.93,625.22a.69.69,0,0,0,.29-.34l.68-1.62-1.76,1a.71.71,0,0,1-1-.43l-.51-2-.68,1.62a.69.69,0,0,0,0,.45l.45,1.73a.7.7,0,0,0,1,.43Z" transform="translate(-337.85 -610.23)"/>
    <path class="cls-2" d="M406.67,664.91a.64.64,0,0,0,.33.3l1.62.69-1-1.77a.69.69,0,0,1,.43-1l2-.52-1.62-.68a.69.69,0,0,0-.45,0l-1.73.45a.7.7,0,0,0-.43,1Z" transform="translate(-337.85 -610.23)"/>
    <path class="cls-2" d="M366.94,678.58a.67.67,0,0,0-.29.33l-.69,1.62,1.76-1a.7.7,0,0,1,1,.44l.51,2,.69-1.62a.69.69,0,0,0,0-.45l-.45-1.73a.7.7,0,0,0-1-.43Z" transform="translate(-337.85 -610.23)"/>
    <path class="cls-2" d="M353.36,638.83a.64.64,0,0,0-.33-.3l-1.62-.69,1,1.76a.7.7,0,0,1-.43,1l-2,.51,1.61.69a.69.69,0,0,0,.45,0l1.73-.45a.69.69,0,0,0,.44-1Z" transform="translate(-337.85 -610.23)"/>
</svg>