<svg id="Layer_1" data-name="Layer 1"
    xmlns="http://www.w3.org/2000/svg" viewBox="0 0 112.25 65.81">
    <defs>
        <style>.cls-1{fill:useCurrent},.cls-2{fill:useCurrent}</style>
    </defs>
    <path class="cls-1" d="M346.62,400.39a1,1,0,0,1-1-1,46.94,46.94,0,0,0-25.3-41.73,1,1,0,1,1,.89-1.7,48.85,48.85,0,0,1,26.33,43.43A1,1,0,0,1,346.62,400.39Z" transform="translate(-239.76 -355.89)"/>
    <polygon class="cls-1" points="111.14 39.12 106.85 49.81 102.56 39.12 111.14 39.12"/>
    <path class="cls-1" d="M244.57,400.39a1,1,0,0,1-1-1A48.85,48.85,0,0,1,269.94,356a1,1,0,1,1,.89,1.7,46.94,46.94,0,0,0-25.3,41.73A1,1,0,0,1,244.57,400.39Z" transform="translate(-239.76 -355.89)"/>
    <polygon class="cls-1" points="0.52 39.12 4.81 49.81 9.1 39.12 0.52 39.12"/>
    <path class="cls-2" d="M347.85,411.88A4.94,4.94,0,1,0,352,416,4.94,4.94,0,0,0,347.85,411.88Zm1.86,5.78H348v2.08h-1.81v-2.08h-1.75v-1.79h1.74v-2.08H348v2.08h1.74Z" transform="translate(-239.76 -355.89)"/>
    <path class="cls-2" d="M245.49,411.88a4.94,4.94,0,1,0,4.1,4.1A4.95,4.95,0,0,0,245.49,411.88Zm1.87,4v1.79l-5.29,0v-1.79Z" transform="translate(-239.76 -355.89)"/>
</svg>