<svg id="Layer_1" data-name="Layer 1"
    xmlns="http://www.w3.org/2000/svg" viewBox="0 0 90.48 84.29">
    <defs>
        <style>.cls-1{fill:useCurrent;}</style>
    </defs>
    <path class="cls-1" d="M350.1,391.49H299.31a3.55,3.55,0,0,0-.46,0c-2.17.3-2.92,2.54-2.17,4.75l5.68,13.66a6.83,6.83,0,0,0,5.95,3.49h5.19a2.84,2.84,0,0,1,2.7,3.69,36,36,0,0,0,6,32.54,9.69,9.69,0,0,1,1.54,9.24,12.54,12.54,0,0,0,23.06,9.8,9.37,9.37,0,0,1,7.52-5.14,36.12,36.12,0,0,0,32.46-38.77C385.37,406.44,368.5,391.49,350.1,391.49Z" transform="translate(-296.4 -391.49)"/>
</svg>