<svg id="Layer_1" data-name="Layer 1"
    xmlns="http://www.w3.org/2000/svg" viewBox="0 0 90.48 84.29">
    <defs>
        <style>.cls-1{fill:useCurrent;}</style>
    </defs>
    <path class="cls-1" d="M297.45,424.78a36.12,36.12,0,0,0,32.46,38.77,9.37,9.37,0,0,1,7.52,5.14,12.54,12.54,0,0,0,23.06-9.8,9.69,9.69,0,0,1,1.54-9.24,35.85,35.85,0,0,0,7.48-19.77A36.42,36.42,0,0,0,368,417.11a2.83,2.83,0,0,1,2.69-3.69h5.19a6.85,6.85,0,0,0,6-3.49l5.67-13.66c.75-2.21,0-4.45-2.17-4.75a3.55,3.55,0,0,0-.46,0H334.12C315.73,391.49,298.85,406.44,297.45,424.78Z" transform="translate(-297.35 -391.49)"/>
</svg>