<svg id="Layer_1" data-name="Layer 1"
    xmlns="http://www.w3.org/2000/svg" viewBox="0 0 90.48 72.25">
    <defs>
        <style>.cls-1{fill:useCurrent;}</style>
    </defs>
    <path class="cls-1" d="M385.07,398.58a3.55,3.55,0,0,0-.46,0H333.88c-20,0-37,16.36-36.84,36.35a36.13,36.13,0,0,0,39,35.77,35.31,35.31,0,0,0,13.42-3.77,8.78,8.78,0,0,1,9.61,1,12.46,12.46,0,0,0,8.08,2.89,12.69,12.69,0,0,0,12.48-11.94,12.54,12.54,0,0,0-6.27-11.49A8.48,8.48,0,0,1,369,439c.08-.69.15-1.39.19-2.09a36.24,36.24,0,0,0-1.49-12.77,2.84,2.84,0,0,1,2.7-3.69h5.19a6.8,6.8,0,0,0,5.95-3.49l5.68-13.66C388,401.12,387.24,398.87,385.07,398.58Z" transform="translate(-297.04 -398.55)"/>
</svg>