<svg id="Layer_1" data-name="Layer 1"
    xmlns="http://www.w3.org/2000/svg" viewBox="0 0 97.96 72.27">
    <defs>
        <style>.cls-1{fill:useCurrent;}</style>
    </defs>
    <path class="cls-1" d="M370.53,466.32c.27-.12.52-.26.78-.4s.55-.27.82-.42.73-.41,1.08-.62l.47-.27c.45-.27.89-.56,1.33-.85l.17-.12A36.05,36.05,0,0,0,391,433.44a35.55,35.55,0,0,0-10.86-25.07l-.05-.06c-.39-.38-.79-.75-1.2-1.12l-.1-.09c-.41-.37-.83-.72-1.25-1.07l-.09-.07a37,37,0,0,0-23.26-8.33H296.48a3.4,3.4,0,0,0-3.4,3.4v15.12a3.4,3.4,0,0,0,3.4,3.4h21.16a2.84,2.84,0,0,1,2.69,3.69A36,36,0,0,0,318.85,436c0,.71.1,1.4.19,2.09a8.49,8.49,0,0,1-4.32,8.35A12.53,12.53,0,0,0,308.46,458a12.67,12.67,0,0,0,12.48,11.94A12.48,12.48,0,0,0,329,467a8.78,8.78,0,0,1,9.61-1,35.63,35.63,0,0,0,13.42,3.77,36.07,36.07,0,0,0,16.84-2.71l.4-.18C369.71,466.7,370.12,466.52,370.53,466.32Z" transform="translate(-293.08 -397.63)"/>
</svg>