<svg id="Capa_1" data-name="Capa 1"
    xmlns="http://www.w3.org/2000/svg" viewBox="0 0 511.97 512.02">
    <path fill="currentColor" d="M503.7,151.6c-26.3-13.2-49.7-24.4-82.6-35.1A72.37,72.37,0,0,0,422,105c0-17.5-10.9-39.4-33.4-66.9a404.45,404.45,0,0,0-31.3-34,14.92,14.92,0,0,0-20.6,0,404.45,404.45,0,0,0-31.3,34c-16.6,20.4-27,37.7-31.2,52.4C182.6,87.3,97.8,106.9,8.3,151.6a15,15,0,0,0-6.7,20.1L102.7,373.9a15.12,15.12,0,0,0,18,7.6,448,448,0,0,1,68-16.2l34.9,69.5a45,45,0,1,0,27.3-12.6l-30.4-60.6c11.5-.9,23-1.4,34.5-1.4a447.57,447.57,0,0,1,136.3,21.3,14.86,14.86,0,0,0,18-7.6L510.4,171.7A15,15,0,0,0,503.7,151.6ZM255,452a15,15,0,1,1-15,15A15,15,0,0,1,255,452ZM347,36.2c21.2,22.2,45,53,45,68.8a45,45,0,0,1-90,0C302,89.3,325.8,58.4,347,36.2Zm41.2,312.9A479.58,479.58,0,0,0,255,330.2a471.62,471.62,0,0,0-49,2.6L129.6,180.5a15,15,0,0,0-26.8,13.4l71.9,143.3a475.13,475.13,0,0,0-50.9,11.9L35.2,171.9c80-37.8,156.4-54.3,238.4-51.4a74.95,74.95,0,0,0,137,24.1c26,8.4,45.8,17.2,66.2,27.1Z" transform="translate(-0.02 0.02)"/>
</svg>