<?xml version="1.0" encoding="utf-8"?>
<!-- Generator: Adobe Illustrator 25.2.0, SVG Export Plug-In . SVG Version: 6.00 Build 0)  -->
<svg version="1.1" id="Layer_1" xmlns="http://www.w3.org/2000/svg" xmlns:xlink="http://www.w3.org/1999/xlink" x="0px" y="0px"
	 viewBox="0 0 595.3 841.9" style="enable-background:new 0 0 595.3 841.9;" xml:space="preserve">
<path id="rect7223-2-4-9_2_" d="M293.5,415.8c-0.3,0-0.6,0.3-0.6,0.6v9.6c0,0.3,0.3,0.6,0.6,0.6h5.4c0.3,0,0.6-0.3,0.6-0.6v-3h0.3
	c0.3,0,0.3,0.3,0.3,0.3v1.2c0,0.6,0.3,0.9,0.9,0.9c0.6,0,0.9-0.3,0.9-0.9c0-0.7,0-2.7,0-3.3s-1.2-1.2-1.2-1.8v-1.8h-0.6l-0.6-0.6
	v-0.6c0-0.3-0.3-0.6-0.6-0.6H293.5z M294.1,417h4.2v2.4h-4.2V417z M299.5,418.8h0.6c0,0,0,0.5,0,0.9c0,0.6,1.2,1.2,1.2,1.8v3
	c0,0.3-0.3,0.3-0.3,0.3s-0.3,0-0.3-0.3c0,0,0-1.2,0-1.5c0-0.3-0.3-0.6-0.6-0.6c-0.2,0-0.6,0-0.6,0V418.8z"/>
</svg>
