<svg id="Layer_1" data-name="Layer 1"
    xmlns="http://www.w3.org/2000/svg" viewBox="0 0 10.08 10.22">
    <path fill="currentColor" d="M301.06,424.23a3.79,3.79,0,0,0-2.3-3.49.39.39,0,0,0-.18,0,.47.47,0,0,0-.43.28.47.47,0,0,0,.24.61,2.87,2.87,0,0,1,0,5.28.47.47,0,0,0-.24.61.45.45,0,0,0,.43.27l.18,0A3.8,3.8,0,0,0,301.06,424.23Z" transform="translate(-292.71 -419.13)"/>
    <path fill="currentColor" d="M302.79,424.05v-.16h0v-.12l0-.23a2.89,2.89,0,0,0-.08-.47,5.43,5.43,0,0,0-.48-1.35,5.34,5.34,0,0,0-.7-1.05,5.51,5.51,0,0,0-.93-.87,5.34,5.34,0,0,0-1.09-.63l-.14,0h-.14a.43.43,0,0,0-.29.18.41.41,0,0,0-.09.28.43.43,0,0,0,.25.4l0,0h0a4.39,4.39,0,0,1,1.46,1,4.28,4.28,0,0,1,.84,1.19,4.22,4.22,0,0,1,.42,1.39,2.74,2.74,0,0,1,0,.5,4.41,4.41,0,0,1-.05.81,4.58,4.58,0,0,1-1.34,2.61,4.51,4.51,0,0,1-1.34.9h0s-.05,0-.07,0a.47.47,0,0,0-.24.46.46.46,0,0,0,.46.4h0a.39.39,0,0,0,.18,0l.32-.15a5.49,5.49,0,0,0,1.45-1.08,5.32,5.32,0,0,0,1.45-2.79,2.21,2.21,0,0,0,.05-.33v0a1.5,1.5,0,0,1,0-.2s0-.09,0-.14Z" transform="translate(-292.71 -419.13)"/>
    <path fill="currentColor" d="M299,425.29a2.1,2.1,0,0,0,.29-1.07,1.34,1.34,0,0,0,0-.19,1.65,1.65,0,0,0-.09-.43,2,2,0,0,0-.49-.79,1.91,1.91,0,0,0-.63-.43.46.46,0,0,0-.19,0h-.11a.46.46,0,0,0-.25.15.46.46,0,0,0,0,.64l.15.09a1.12,1.12,0,0,1,.64,1.22,1.14,1.14,0,0,1-.63.8h0l0,0a.45.45,0,0,0-.25.37.48.48,0,0,0,.19.41.44.44,0,0,0,.27.09.39.39,0,0,0,.18,0l.16-.07A2.05,2.05,0,0,0,299,425.29Z" transform="translate(-292.71 -419.13)"/>
    <path fill="currentColor" d="M296.56,423.18v-2.39a.4.4,0,0,0-.69-.28l-2.07,2.07h-1.09v3.31h1.08l2.08,2.08a.45.45,0,0,0,.29.12.37.37,0,0,0,.15,0,.41.41,0,0,0,.25-.38v-2.39a1.34,1.34,0,0,0,.5-1.05A1.36,1.36,0,0,0,296.56,423.18Z" transform="translate(-292.71 -419.13)"/>
</svg>