<svg id="Layer_1" data-name="Layer 1"
    xmlns="http://www.w3.org/2000/svg" viewBox="0 0 9.88 9.88">
    <defs>
        <style>.cls-1{fill:useCurrent;fill-rule:evenodd;}</style>
    </defs>
    <path class="cls-1" d="M298.53,419.35a4.95,4.95,0,1,0,4.1,4.1A5,5,0,0,0,298.53,419.35Zm-.17,2.88L297,423.56h3.32a.68.68,0,1,1,0,1.35H297l1.32,1.33a.67.67,0,0,1,0,1,.69.69,0,0,1-1,0l-2.48-2.48a.36.36,0,0,1-.07-.1l-.39-.38.39-.39a.31.31,0,0,1,.07-.09l2.48-2.49a.69.69,0,0,1,1,0A.67.67,0,0,1,298.36,422.23Z" transform="translate(-292.81 -419.29)"/>
</svg>