<svg id="Layer_1" data-name="Layer 1"
    xmlns="http://www.w3.org/2000/svg" viewBox="0 0 10 11.8">
    <path fill="currentColor" d="M402.3,637.53v-1.8h-.6l-.6-.6v-.6a.65.65,0,0,0-.6-.6h-5.4a.65.65,0,0,0-.6.6v7.3l6.6-3.4v-1.5h.6v.9c0,.6,1.2,1.2,1.2,1.8v3a.3.3,0,0,1-.6,0v-1.5a.65.65,0,0,0-.6-.6h-.4l-6.8,3.5v.1a.65.65,0,0,0,.6.6h5.4a.65.65,0,0,0,.6-.6v-3h.3a.29.29,0,0,1,.3.3v1.2a.9.9,0,1,0,1.8,0v-3.3C403.5,638.73,402.3,638.13,402.3,637.53Zm-2.4,0h-4.2v-2.4h4.2Z" transform="translate(-394 -633.43)"/>
</svg>