<svg id="Layer_1" data-name="Layer 1"
    xmlns="http://www.w3.org/2000/svg" viewBox="0 0 14.4 10">
    <defs>
        <style>.bBoxClass{stroke-linecap:round;stroke-linejoin:round;stroke-width:0.5px;}</style>
    </defs>
    <path class="bBoxClass" fill="currentColor" stroke="currentColor" d="M401.14,672.45H401c-.1,0-.2-.1-.2-.4v-1.5h-4.7v-2.5a.68.68,0,0,1,.7-.7h4v-1.6c0-.3.1-.4.2-.4h.1c.1,0,.2.1.3.2l3.4,3.4-3.4,3.4A.37.37,0,0,1,401.14,672.45Zm-.7-2.3a.68.68,0,0,1,.7.7v1.3l3.3-3.3-3.3-3.3v2.1h-4.3a.35.35,0,0,0-.4.4v2.2l4-.1Z" transform="translate(-390.69 -662.7)"/>
    <path class="bBoxClass" fill="currentColor" stroke="currentColor" d="M394.64,670.35c-.2,0-.3-.1-.5-.2l-2.9-2.9a.75.75,0,0,1,0-1.2l2.9-2.9a.76.76,0,0,1,.5-.2h.2c.1,0,.3.2.3.6v1.2c0,.1,0,.1.1.1l.1.1H399a.86.86,0,0,1,.6.3,2.19,2.19,0,0,1,.3.5h-.4c0-.1-.1-.2-.2-.3a.52.52,0,0,0-.4-.2h-3.7c-.1,0-.2-.1-.3-.1a.37.37,0,0,1-.1-.3v-1.4c0-.2,0-.3-.1-.3h-.1c-.1,0-.2,0-.2.1l-2.9,2.9a.5.5,0,0,0,0,.8l2.9,2.9a.31.31,0,0,0,.2.1h.1c.1,0,.1-.1.1-.3v-1.2h.3v1.2a.68.68,0,0,1-.3.6C394.84,670.35,394.74,670.35,394.64,670.35Z" transform="translate(-390.69 -662.7)"/>
</svg>