<svg id="Layer_1" data-name="Layer 1"
    xmlns="http://www.w3.org/2000/svg" viewBox="0 0 107.64 93.51">
    <path fill="currentColor" d="M959.46,507.81c-2.79-2.57-5.18-5.11-7.91-7.21-9.64-7.41-21.8-7.84-32.21-1.36-10,6.25-15.53,18.23-13.31,29.42,1.52,7.68,5.73,14.12,11.06,19.55,12.81,13,26,25.73,39.06,38.53,2,2,4.27,1.89,6.3-.08,12.32-12,24.84-23.73,36.79-36a65,65,0,0,0,11-15.79c5.16-10.2,3.2-20.18-3.79-28.91S990,493.34,978.6,495.27C970.52,496.63,964.73,501.68,959.46,507.81Z" transform="translate(-905.54 -494.68)"/>
    <path d="M959.46,507.81c5.27-6.13,11.06-11.18,19.14-12.55,11.35-1.92,20.81,1.82,27.88,10.64s8.95,18.71,3.79,28.91a64.76,64.76,0,0,1-11,15.79c-12,12.32-24.48,24.09-36.79,36-2,2-4.27,2.06-6.3.08-13.07-12.79-26.26-25.48-39.06-38.53-5.33-5.43-9.54-11.87-11.06-19.55-2.22-11.19,3.28-23.17,13.31-29.42,10.41-6.49,22.57-6.05,32.21,1.36C954.28,502.7,956.67,505.24,959.46,507.81Z" transform="translate(-905.54 -494.68)"/>
</svg>