<svg id="Layer_1" data-name="Layer 1"
    xmlns="http://www.w3.org/2000/svg" viewBox="0 0 11.32 10.2">
    <path  fill="currentColor" d="M303.21,427.24,299,420a1.47,1.47,0,0,0-2.56,0l-4.18,7.24a1.48,1.48,0,0,0,1.28,2.22h8.36A1.48,1.48,0,0,0,303.21,427.24Zm-6.06-5a.59.59,0,0,1,.59-.6h0a.6.6,0,0,1,.6.6v3.48a.6.6,0,0,1-.6.6h0a.59.59,0,0,1-.59-.6Zm1.14,5.85a.78.78,0,0,1-.55.23.69.69,0,0,1-.51-.21.74.74,0,0,1-.23-.54.78.78,0,0,1,.21-.51.75.75,0,0,1,.55-.23.73.73,0,0,1,.5.21.76.76,0,0,1,.24.55A.78.78,0,0,1,298.29,428.06Z" transform="translate(-292.09 -419.26)"/>
</svg>