<svg id="Layer_1" data-name="Layer 1"
    xmlns="http://www.w3.org/2000/svg" viewBox="0 0 108.79 83.54">
    <defs>
        <style>.cls-1{fill:useCurrent;}.cls-2{fill:#010101;}</style>
    </defs>
    <path class="cls-1" d="M463.27,728.18v8.21a3.36,3.36,0,0,0,3.35,3.34h25.86c1.22,0,4.31.59,2.38,4.76a1,1,0,0,1,0,.1,41.75,41.75,0,1,0,35.47-19.77l-.69,0h-63A3.36,3.36,0,0,0,463.27,728.18Z" transform="translate(-463.27 -724.82)"/>
    <path class="cls-2" d="M531.74,737.2a.71.71,0,0,0,.14-.43V735l-1.23,1.6a.71.71,0,0,1-1.11,0l-1.23-1.6v1.75a.71.71,0,0,0,.14.43l1.09,1.42a.71.71,0,0,0,1.11,0Z" transform="translate(-463.27 -724.82)"/>
    <path class="cls-2" d="M559.77,768.48a.71.71,0,0,0,.42.14H562l-1.6-1.24a.7.7,0,0,1,0-1.1l1.61-1.24H560.2a.71.71,0,0,0-.42.14l-1.42,1.09a.7.7,0,0,0,0,1.11Z" transform="translate(-463.27 -724.82)"/>
    <path class="cls-2" d="M528.43,796.45a.71.71,0,0,0-.14.43v1.76l1.24-1.6a.7.7,0,0,1,1.11,0l1.23,1.61v-1.76a.71.71,0,0,0-.14-.42L530.64,795a.71.71,0,0,0-1.11,0Z" transform="translate(-463.27 -724.82)"/>
    <path class="cls-2" d="M500.52,765.06a.71.71,0,0,0-.42-.14h-1.76l1.6,1.24a.69.69,0,0,1,0,1.1l-1.61,1.23h1.76a.71.71,0,0,0,.42-.14l1.43-1.08a.7.7,0,0,0,0-1.11Z" transform="translate(-463.27 -724.82)"/>
    <path class="cls-2" d="M510.31,744.75a.75.75,0,0,0-.19-.4l-1.25-1.25.26,2a.69.69,0,0,1-.78.78l-2-.26,1.25,1.25a.75.75,0,0,0,.4.19l1.77.24a.7.7,0,0,0,.79-.79Z" transform="translate(-463.27 -724.82)"/>
    <path class="cls-2" d="M552.26,747.05a.7.7,0,0,0,.4-.2l1.25-1.24-2,.26a.7.7,0,0,1-.78-.79l.26-2-1.24,1.25a.67.67,0,0,0-.2.4l-.24,1.77a.7.7,0,0,0,.78.78Z" transform="translate(-463.27 -724.82)"/>
    <path class="cls-2" d="M549.88,789a.69.69,0,0,0,.2.41l1.23,1.25-.25-2a.69.69,0,0,1,.78-.78l2,.27-1.24-1.25a.7.7,0,0,0-.4-.2l-1.77-.24a.7.7,0,0,0-.79.78Z" transform="translate(-463.27 -724.82)"/>
    <path class="cls-2" d="M508,786.52a.69.69,0,0,0-.41.2L506.29,788l2-.26a.7.7,0,0,1,.78.79l-.28,2,1.25-1.24a.7.7,0,0,0,.2-.4l.25-1.77a.7.7,0,0,0-.78-.79Z" transform="translate(-463.27 -724.82)"/>
    <path class="cls-2" d="M558.17,757.1a.69.69,0,0,0,.45,0l1.63-.67-2-.53a.7.7,0,0,1-.42-1l1-1.75-1.63.67a.74.74,0,0,0-.34.29l-.9,1.55a.69.69,0,0,0,.42,1Z" transform="translate(-463.27 -724.82)"/>
    <path class="cls-2" d="M539.82,794.88a.69.69,0,0,0,0,.45l.66,1.63.54-2a.69.69,0,0,1,1-.41l1.75,1-.66-1.63a.74.74,0,0,0-.29-.34l-1.55-.9a.69.69,0,0,0-1,.42Z" transform="translate(-463.27 -724.82)"/>
    <path class="cls-2" d="M502.07,776.45a.67.67,0,0,0-.44,0l-1.63.66,1.95.54a.69.69,0,0,1,.41,1l-1,1.75,1.64-.66a.67.67,0,0,0,.33-.29l.91-1.54a.7.7,0,0,0-.41-1Z" transform="translate(-463.27 -724.82)"/>
    <path class="cls-2" d="M520.58,738.74a.7.7,0,0,0,0-.45l-.65-1.63-.55,2a.7.7,0,0,1-1,.41l-1.74-1,.65,1.64a.71.71,0,0,0,.3.34l1.54.91a.7.7,0,0,0,1-.42Z" transform="translate(-463.27 -724.82)"/>
    <path class="cls-2" d="M543.08,740.12a.69.69,0,0,0,.3-.33l.68-1.63-1.76,1a.7.7,0,0,1-1-.43l-.52-2-.68,1.62a.69.69,0,0,0,0,.45l.46,1.73a.7.7,0,0,0,1,.43Z" transform="translate(-463.27 -724.82)"/>
    <path class="cls-2" d="M556.82,779.82a.74.74,0,0,0,.34.29l1.62.69-1-1.76a.69.69,0,0,1,.43-1l2-.51-1.62-.69a.69.69,0,0,0-.45,0l-1.73.45a.7.7,0,0,0-.43,1Z" transform="translate(-463.27 -724.82)"/>
    <path class="cls-2" d="M517.1,793.48a.69.69,0,0,0-.3.33l-.69,1.62,1.77-1a.69.69,0,0,1,1,.43l.5,2,.69-1.62a.69.69,0,0,0,0-.45l-.44-1.73a.7.7,0,0,0-1-.43Z" transform="translate(-463.27 -724.82)"/>
    <path class="cls-2" d="M503.52,753.73a.76.76,0,0,0-.34-.3l-1.62-.69,1,1.77a.69.69,0,0,1-.44,1l-2,.51,1.62.69a.69.69,0,0,0,.45,0l1.73-.44a.7.7,0,0,0,.43-1Z" transform="translate(-463.27 -724.82)"/>
</svg>