<svg id="Layer_1" data-name="Layer 1"
    xmlns="http://www.w3.org/2000/svg" viewBox="0 0 294.11 187.51">
    <defs>
        <style>.cls-1{fill:useCurrent;}</style>
    </defs>
    <path class="cls-1" d="M456.06,465.09h-.14a7.36,7.36,0,0,1-4.79-13A46.42,46.42,0,0,0,421,370.43H219.71a46.41,46.41,0,0,0-29.79,82,7.17,7.17,0,0,1-4.43,12.64,8.2,8.2,0,0,0-8.22,8V480c0,5.4,3.37,9.32,8,9.32h9.17a9.53,9.53,0,0,1,7.49,3.62,9.41,9.41,0,0,1,1.8,8,46.37,46.37,0,0,0,79,42.3,11.47,11.47,0,0,1,9.24-3.61,10.94,10.94,0,0,1,8.21,4.67,24.25,24.25,0,0,0,40.09-.31,11.24,11.24,0,0,1,8.54-5l.84,0a11.06,11.06,0,0,1,8.24,3.65A46.39,46.39,0,0,0,437.46,501a9.41,9.41,0,0,1,1.8-8,9.51,9.51,0,0,1,7.49-3.62h9.17a8,8,0,0,0,8-8v-7.92a8.6,8.6,0,0,0-2.56-6.11A7.22,7.22,0,0,0,456.06,465.09ZM220,431a14.17,14.17,0,1,1,14.18-14.17A14.17,14.17,0,0,1,220,431Zm29,94.66a14.18,14.18,0,1,1,14.18-14.17A14.18,14.18,0,0,1,249,525.69Zm71.32,18.77a12.76,12.76,0,1,1,12.76-12.76A12.75,12.75,0,0,1,320.33,544.46Zm.13-90.81a14.18,14.18,0,1,1,14.17-14.17A14.17,14.17,0,0,1,320.46,453.65Zm71.79,72a14.18,14.18,0,1,1,14.17-14.17A14.18,14.18,0,0,1,392.25,525.68ZM421,431a14.17,14.17,0,1,1,14.17-14.17A14.17,14.17,0,0,1,421,431Z" transform="translate(-173.28 -370.43)"/>
</svg>