<svg id="Layer_1" data-name="Layer 1"
    xmlns="http://www.w3.org/2000/svg" viewBox="0 0 9.88 9.88">
    <defs>
        <style>.cls-1{fill-rule:evenodd;}</style>
    </defs>
    <path fill="currentColor" class="cls-1" d="M292.87,423.45a4.94,4.94,0,1,0,4.1-4.1A5,5,0,0,0,292.87,423.45Zm4.27-2.18a.69.69,0,0,1,1,0l2.48,2.49a.31.31,0,0,1,.07.09l.39.39-.39.38a.36.36,0,0,1-.07.1l-2.48,2.48a.69.69,0,0,1-1,0,.67.67,0,0,1,0-1l1.32-1.33h-3.32a.68.68,0,1,1,0-1.35h3.32l-1.32-1.33A.67.67,0,0,1,297.14,421.27Z" transform="translate(-292.81 -419.29)"/>
</svg>