<svg id="Layer_1" data-name="Layer 1"
    xmlns="http://www.w3.org/2000/svg" viewBox="0 0 330 245.4">
    <path fill="currentColor" d="M51.21,180H225a15,15,0,0,0,0-30H51.21l19.4-19.39a15,15,0,1,0-21.22-21.22l-45,45a14.53,14.53,0,0,0-1,1.09c-.08.09-.14.19-.22.29-.23.29-.45.58-.66.89-.06.09-.11.19-.16.28-.21.32-.41.64-.59,1a2,2,0,0,0-.1.21c-.19.36-.37.74-.53,1.12l-.06.15c-.16.4-.31.81-.44,1.23a.94.94,0,0,1,0,.16c-.12.41-.23.83-.32,1.26,0,.13,0,.26,0,.38a9.87,9.87,0,0,0-.16,1.07c0,.5-.08,1-.08,1.5s0,1,.08,1.5a10,10,0,0,0,.16,1.08c0,.12,0,.25,0,.37.09.43.2.85.32,1.27a.83.83,0,0,1,0,.15,13.07,13.07,0,0,0,.45,1.24.58.58,0,0,0,0,.14c.16.39.34.76.53,1.13l.09.2q.28.51.6,1c.06.09.1.18.16.27.21.31.44.6.66.89.08.1.14.2.22.29a14.53,14.53,0,0,0,1,1.09l45,45a15,15,0,1,0,21.22-21.22Z" transform="translate(0 -42.3)"/>
    <path fill="currentColor" d="M207.3,42.3A122.59,122.59,0,0,0,105.4,96.63a15,15,0,0,0,24.9,16.74,92.69,92.69,0,1,1,.12,103.45,15,15,0,0,0-24.86,16.79A122.71,122.71,0,1,0,207.3,42.3Z" transform="translate(0 -42.3)"/>
</svg>