<svg id="Layer_1" data-name="Layer 1"
    xmlns="http://www.w3.org/2000/svg" viewBox="0 0 9.91 9.91">
    <defs>
        <style>.adjust{fill-rule:evenodd;}</style>
    </defs>
    <path class="adjust" fill="currentColor" d="M302.4,419.7a4.88,4.88,0,0,0-4.1-4.1,5,5,0,0,0-5.7,5.7,4.88,4.88,0,0,0,4.1,4.1A5,5,0,0,0,302.4,419.7Zm-1.8,2.5h-3.7a1,1,0,0,1-.9.6,1,1,0,0,1-.9-.6h-.6a.4.4,0,0,1,0-.8h.6a1,1,0,0,1,.9-.6,1,1,0,0,1,.9.6h3.7a.4.4,0,0,1,0,.8Zm0-2.6h-.7a1,1,0,0,1-.9.6,1,1,0,0,1-.9-.6h-3.6a.4.4,0,1,1,0-.8h3.6a1,1,0,0,1,.9-.6,1,1,0,0,1,.9.6h.7a.4.4,0,0,1,0,.8Z" transform="translate(-292.54 -415.54)"/>
</svg>