<svg id="Layer_1" data-name="Layer 1"
    xmlns="http://www.w3.org/2000/svg" viewBox="0 0 108.79 83.54">
    <path fill="currentColor" class="main" d="M348.55,378.75h-63l-.69,0a41.83,41.83,0,1,0,35.47,19.77.3.3,0,0,1,0-.1c-1.93-4.18,1.16-4.71,2.38-4.76h25.86a3.35,3.35,0,0,0,3.34-3.35v-8.2A3.35,3.35,0,0,0,348.55,378.75Z" transform="translate(-243.11 -378.73)"/>
    <polygon fill="currentColor" class="secondary" points="63.1 10.84 59.75 7.49 63.1 4.14 63.1 10.84"/>
    <path fill="currentColor" class="secondary" d="M286.83,390.8a.66.66,0,0,0,.15-.43v-1.76l-1.24,1.61a.7.7,0,0,1-1.1,0l-1.24-1.61v1.76a.66.66,0,0,0,.15.43l1.09,1.42a.7.7,0,0,0,1.1,0Z" transform="translate(-243.11 -378.73)"/>
    <path fill="currentColor" class="secondary" d="M314.87,422.08a.71.71,0,0,0,.42.14h1.76l-1.6-1.24a.71.71,0,0,1,0-1.11l1.61-1.23H315.3a.76.76,0,0,0-.43.14l-1.42,1.09a.71.71,0,0,0,0,1.11Z" transform="translate(-243.11 -378.73)"/>
    <path fill="currentColor" class="secondary" d="M283.53,450.05a.71.71,0,0,0-.14.43v1.75l1.24-1.6a.7.7,0,0,1,1.11,0l1.22,1.61v-1.76a.76.76,0,0,0-.14-.43l-1.09-1.42a.7.7,0,0,0-1.1,0Z" transform="translate(-243.11 -378.73)"/>
    <path fill="currentColor" class="secondary" d="M255.62,418.66a.72.72,0,0,0-.42-.15h-1.76l1.6,1.25a.69.69,0,0,1,0,1.1l-1.61,1.23h1.76a.71.71,0,0,0,.42-.14l1.43-1.09a.7.7,0,0,0,0-1.1Z" transform="translate(-243.11 -378.73)"/>
    <path fill="currentColor" class="secondary" d="M265.41,398.35a.67.67,0,0,0-.2-.4L264,396.7l.26,2a.69.69,0,0,1-.78.78l-2-.26,1.25,1.24a.7.7,0,0,0,.4.2l1.77.23a.69.69,0,0,0,.78-.78Z" transform="translate(-243.11 -378.73)"/>
    <path fill="currentColor" class="secondary" d="M307.35,400.64a.74.74,0,0,0,.41-.19L309,399.2l-2,.26a.7.7,0,0,1-.78-.78l.27-2-1.24,1.24a.69.69,0,0,0-.2.41l-.24,1.77a.7.7,0,0,0,.78.78Z" transform="translate(-243.11 -378.73)"/>
    <path fill="currentColor" class="secondary" d="M305,442.58a.71.71,0,0,0,.19.4l1.24,1.25-.25-2a.69.69,0,0,1,.78-.77l2,.27-1.24-1.25a.7.7,0,0,0-.4-.2l-1.77-.24a.7.7,0,0,0-.79.78Z" transform="translate(-243.11 -378.73)"/>
    <path fill="currentColor" class="secondary" d="M263,440.12a.7.7,0,0,0-.4.2l-1.25,1.23,2-.25a.71.71,0,0,1,.78.79l-.28,2,1.25-1.24a.7.7,0,0,0,.2-.4l.25-1.77a.7.7,0,0,0-.78-.79Z" transform="translate(-243.11 -378.73)"/>
    <path fill="currentColor" class="secondary" d="M313.27,410.69a.77.77,0,0,0,.45,0l1.63-.67-2-.53a.7.7,0,0,1-.41-1l1-1.75-1.63.67a.74.74,0,0,0-.34.29l-.9,1.55a.7.7,0,0,0,.42,1Z" transform="translate(-243.11 -378.73)"/>
    <path fill="currentColor" class="secondary" d="M294.92,448.48a.7.7,0,0,0,0,.45l.66,1.62.54-1.95a.69.69,0,0,1,1-.41l1.75,1-.66-1.63a.71.71,0,0,0-.3-.34l-1.54-.9a.69.69,0,0,0-1,.41Z" transform="translate(-243.11 -378.73)"/>
    <path fill="currentColor" class="secondary" d="M257.17,430.05a.7.7,0,0,0-.45,0l-1.63.65,2,.55a.69.69,0,0,1,.42,1l-1,1.75,1.63-.66a.65.65,0,0,0,.34-.29l.91-1.54a.7.7,0,0,0-.41-1Z" transform="translate(-243.11 -378.73)"/>
    <path fill="currentColor" class="secondary" d="M275.67,392.34a.69.69,0,0,0,0-.45l-.66-1.63-.54,1.95a.7.7,0,0,1-1,.41l-1.74-1,.65,1.63a.65.65,0,0,0,.29.34l1.54.91a.69.69,0,0,0,1-.41Z" transform="translate(-243.11 -378.73)"/>
    <path fill="currentColor" class="secondary" d="M298.18,393.72a.71.71,0,0,0,.3-.34l.68-1.62-1.76,1a.7.7,0,0,1-1-.43l-.52-2-.68,1.62a.69.69,0,0,0,0,.45l.46,1.73a.7.7,0,0,0,1,.43Z" transform="translate(-243.11 -378.73)"/>
    <path fill="currentColor" class="secondary" d="M311.92,433.41a.68.68,0,0,0,.33.3l1.63.69-1-1.77a.68.68,0,0,1,.43-1l2-.52-1.63-.68a.66.66,0,0,0-.44,0l-1.73.45a.69.69,0,0,0-.43,1Z" transform="translate(-243.11 -378.73)"/>
    <path fill="currentColor" class="secondary" d="M272.2,447.08a.64.64,0,0,0-.3.33l-.69,1.62,1.77-1a.69.69,0,0,1,1,.44l.51,2,.69-1.62a.69.69,0,0,0,0-.45l-.45-1.73a.69.69,0,0,0-1-.43Z" transform="translate(-243.11 -378.73)"/>
    <path fill="currentColor" class="secondary" d="M258.61,407.33a.64.64,0,0,0-.33-.3l-1.62-.69,1,1.76a.71.71,0,0,1-.44,1l-2,.51,1.62.69a.67.67,0,0,0,.44,0l1.74-.45a.69.69,0,0,0,.43-1Z" transform="translate(-243.11 -378.73)"/>
</svg>