<svg id="Layer_1" data-name="Layer 1"
    xmlns="http://www.w3.org/2000/svg" viewBox="0 0 108.79 83.54">
    <path fill="currentColor" d="M335,160.5v8.21a3.36,3.36,0,0,0,3.34,3.34H364.2c1.21,0,4.31.58,2.38,4.76a.69.69,0,0,0,0,.1A41.75,41.75,0,1,0,402,157.14l-.69,0h-63A3.35,3.35,0,0,0,335,160.5Z" transform="translate(-334.99 -157.14)"/>
    <polygon fill="black" points="42.99 4.26 46.34 7.61 42.99 10.96 42.99 4.26"/>
    <path fill="black" d="M403.45,169.52a.66.66,0,0,0,.15-.43v-1.76l-1.24,1.61a.7.7,0,0,1-1.1,0L400,167.33v1.76a.66.66,0,0,0,.15.43l1.09,1.42a.7.7,0,0,0,1.1,0Z" transform="translate(-334.99 -157.14)"/>
    <path fill="black" d="M431.49,200.8a.71.71,0,0,0,.42.14h1.76l-1.6-1.24a.71.71,0,0,1,0-1.11l1.61-1.23h-1.76a.76.76,0,0,0-.43.14l-1.42,1.09a.71.71,0,0,0,0,1.11Z" transform="translate(-334.99 -157.14)"/>
    <path fill="black" d="M400.15,228.77a.71.71,0,0,0-.14.43V231l1.24-1.6a.7.7,0,0,1,1.11,0l1.22,1.61v-1.76a.76.76,0,0,0-.14-.43l-1.09-1.42a.7.7,0,0,0-1.1,0Z" transform="translate(-334.99 -157.14)"/>
    <path fill="black" d="M372.24,197.38a.79.79,0,0,0-.42-.15h-1.76l1.6,1.25a.7.7,0,0,1,0,1.1L370,200.8h1.76a.71.71,0,0,0,.42-.14l1.43-1.09a.7.7,0,0,0,0-1.1Z" transform="translate(-334.99 -157.14)"/>
    <path fill="black" d="M382,177.07a.7.7,0,0,0-.2-.4l-1.24-1.25.26,2a.69.69,0,0,1-.78.78l-2-.26,1.25,1.24a.67.67,0,0,0,.4.2l1.77.23a.69.69,0,0,0,.78-.78Z" transform="translate(-334.99 -157.14)"/>
    <path fill="black" d="M424,179.36a.68.68,0,0,0,.41-.19l1.24-1.24-2,.25a.69.69,0,0,1-.78-.78l.27-2-1.25,1.24a.74.74,0,0,0-.19.41l-.24,1.77a.7.7,0,0,0,.78.78Z" transform="translate(-334.99 -157.14)"/>
    <path fill="black" d="M421.6,221.3a.71.71,0,0,0,.19.41L423,223l-.25-2a.69.69,0,0,1,.78-.77l2,.27-1.24-1.25a.7.7,0,0,0-.4-.2l-1.77-.24a.7.7,0,0,0-.79.78Z" transform="translate(-334.99 -157.14)"/>
    <path fill="black" d="M379.66,218.84a.7.7,0,0,0-.4.2L378,220.27l2-.25a.71.71,0,0,1,.78.79l-.28,2,1.25-1.24a.7.7,0,0,0,.2-.4l.24-1.77a.69.69,0,0,0-.77-.79Z" transform="translate(-334.99 -157.14)"/>
    <path fill="black" d="M429.89,189.41a.69.69,0,0,0,.45,0l1.63-.67-2-.53a.7.7,0,0,1-.41-1l1-1.75-1.63.67a.74.74,0,0,0-.34.29l-.9,1.55a.7.7,0,0,0,.42,1Z" transform="translate(-334.99 -157.14)"/>
    <path fill="black" d="M411.54,227.2a.7.7,0,0,0,0,.45l.66,1.63.54-2a.69.69,0,0,1,1-.41l1.75,1-.66-1.63a.71.71,0,0,0-.3-.34l-1.54-.9a.69.69,0,0,0-1,.41Z" transform="translate(-334.99 -157.14)"/>
    <path fill="black" d="M373.79,208.77a.7.7,0,0,0-.45,0l-1.63.66,2,.54a.69.69,0,0,1,.42,1l-1,1.75,1.63-.66a.74.74,0,0,0,.34-.29l.91-1.54a.7.7,0,0,0-.42-1Z" transform="translate(-334.99 -157.14)"/>
    <path fill="black" d="M392.29,171.06a.69.69,0,0,0,0-.45l-.66-1.63-.54,2a.7.7,0,0,1-1,.41l-1.74-1,.65,1.63a.65.65,0,0,0,.29.34l1.54.91a.69.69,0,0,0,1-.41Z" transform="translate(-334.99 -157.14)"/>
    <path fill="black" d="M414.8,172.44a.71.71,0,0,0,.3-.34l.68-1.62-1.76,1a.7.7,0,0,1-1-.43l-.52-2-.68,1.62a.69.69,0,0,0,0,.45l.46,1.73a.69.69,0,0,0,1,.43Z" transform="translate(-334.99 -157.14)"/>
    <path fill="black" d="M428.54,212.13a.64.64,0,0,0,.33.3l1.62.69-1-1.76a.69.69,0,0,1,.43-1l1.95-.52-1.62-.68a.66.66,0,0,0-.44,0l-1.73.45a.69.69,0,0,0-.43,1Z" transform="translate(-334.99 -157.14)"/>
    <path fill="black" d="M388.82,225.8a.64.64,0,0,0-.3.33l-.69,1.62,1.76-1a.7.7,0,0,1,1,.44l.51,2,.69-1.62a.69.69,0,0,0,0-.45l-.45-1.73a.7.7,0,0,0-1-.43Z" transform="translate(-334.99 -157.14)"/>
    <path fill="black" d="M375.23,186.05a.69.69,0,0,0-.33-.3l-1.62-.69,1,1.76a.7.7,0,0,1-.43,1l-2,.51,1.62.69a.67.67,0,0,0,.44,0l1.74-.45a.69.69,0,0,0,.43-1Z" transform="translate(-334.99 -157.14)"/>
</svg>